<mxfile host="Electron" modified="2023-08-23T20:43:37.056Z" agent="Mozilla/5.0 (Windows NT 10.0; Win64; x64) AppleWebKit/537.36 (KHTML, like Gecko) draw.io/21.6.5 Chrome/114.0.5735.243 Electron/25.3.1 Safari/537.36" etag="XRz3Kd01NfIY0T7-csHe" version="21.6.5" type="device">
  <diagram id="CXUUgnJ3NZRfu66tZE5i" name="Page-1">
    <mxGraphModel dx="780" dy="496" grid="0" gridSize="10" guides="1" tooltips="1" connect="1" arrows="1" fold="1" page="1" pageScale="1" pageWidth="850" pageHeight="1100" math="0" shadow="0">
      <root>
        <mxCell id="0" />
        <mxCell id="1" parent="0" />
        <mxCell id="y1X1aUOBeFnpXUIdjmpI-5" style="edgeStyle=orthogonalEdgeStyle;rounded=1;orthogonalLoop=1;jettySize=auto;html=1;entryX=0;entryY=0.25;entryDx=0;entryDy=0;fontColor=none;noLabel=1;labelBackgroundColor=none;strokeColor=default;strokeWidth=1;jumpSize=7;opacity=50;" parent="1" source="y1X1aUOBeFnpXUIdjmpI-2" target="y1X1aUOBeFnpXUIdjmpI-3" edge="1">
          <mxGeometry relative="1" as="geometry">
            <Array as="points">
              <mxPoint x="35" y="318" />
              <mxPoint x="75" y="318" />
            </Array>
          </mxGeometry>
        </mxCell>
        <mxCell id="y1X1aUOBeFnpXUIdjmpI-7" style="edgeStyle=orthogonalEdgeStyle;rounded=1;orthogonalLoop=1;jettySize=auto;html=1;entryX=0;entryY=0.5;entryDx=0;entryDy=0;strokeColor=default;strokeWidth=1;jumpSize=7;opacity=50;" parent="1" source="y1X1aUOBeFnpXUIdjmpI-2" target="y1X1aUOBeFnpXUIdjmpI-4" edge="1">
          <mxGeometry relative="1" as="geometry">
            <Array as="points">
              <mxPoint x="35" y="415" />
            </Array>
          </mxGeometry>
        </mxCell>
        <mxCell id="y1X1aUOBeFnpXUIdjmpI-2" value="" style="sketch=0;pointerEvents=1;shadow=0;dashed=0;html=1;strokeColor=none;labelPosition=center;verticalLabelPosition=bottom;verticalAlign=top;align=center;fillColor=#505050;shape=mxgraph.mscae.intune.device_group" parent="1" vertex="1">
          <mxGeometry x="20" y="360" width="30" height="30" as="geometry" />
        </mxCell>
        <mxCell id="y1X1aUOBeFnpXUIdjmpI-16" style="edgeStyle=orthogonalEdgeStyle;rounded=1;jumpSize=7;orthogonalLoop=1;jettySize=auto;html=1;entryX=0.483;entryY=-0.086;entryDx=0;entryDy=0;entryPerimeter=0;labelBackgroundColor=none;strokeColor=default;strokeWidth=1;fontSize=9;fontColor=none;opacity=50;" parent="1" source="y1X1aUOBeFnpXUIdjmpI-3" target="y1X1aUOBeFnpXUIdjmpI-14" edge="1">
          <mxGeometry relative="1" as="geometry" />
        </mxCell>
        <mxCell id="y1X1aUOBeFnpXUIdjmpI-25" style="edgeStyle=orthogonalEdgeStyle;rounded=1;jumpSize=7;orthogonalLoop=1;jettySize=auto;html=1;entryX=0;entryY=0.5;entryDx=0;entryDy=0;labelBackgroundColor=none;strokeColor=default;strokeWidth=1;fontSize=9;fontColor=none;opacity=50;" parent="1" source="y1X1aUOBeFnpXUIdjmpI-3" target="y1X1aUOBeFnpXUIdjmpI-21" edge="1">
          <mxGeometry relative="1" as="geometry" />
        </mxCell>
        <mxCell id="y1X1aUOBeFnpXUIdjmpI-3" value="" style="shape=image;verticalLabelPosition=bottom;labelBackgroundColor=default;verticalAlign=top;aspect=fixed;imageAspect=0;image=data:image/png,iVBORw0KGgoAAAANSUhEUgAAAOEAAADhCAMAAAAJbSJIAAAAbFBMVEUAlIX///8Ajn4AkYIAlofm9fNSsKUAi3q63tkAkIHv+Pf5/f0Aj372/Pt6vrXB4d2ez8mUy8Ryu7KKxb7h8vA8pprN6OWp1tFIrKCMxr8knZDY7euy2dXR6eYdnY9htKqk1M5ptq0oo5aW0cusWFKYAAAITklEQVR4nO2da7uyKhCGA0yl89myslX7///HrR3VpJ3zDGr74vn0fnivFbcDA8wM0Os5OTk5OTk5OTk5OTk5OTk5OTk5OTk5OTkVpJSWL2mlVNstYlNGFsjEX+xmf9HhEIaH6G82n/jrXhBI+eOgKVwv3u7C40BUaj+dnS9eitl2Q2nS0vMn01U1W06D4+wU/x6lDpLJ1GC5Co338+0vQWqZ7P7bdm+U0Y9AKpks97XxbhpEa63bBvgP6ZEfjol8Vx0nnmwb4oPkaFG/d74ZctZZRt3bfe9bPuoQd3FAam/JxHdlXI/aBipJyQkjX6ph1K2+Gmzx8VfWeNmdriqTKTtfpr7fDTMqvRxaAUx1SDowPcr4aIsv1eActA44sciX6dBrdTQqSyMwr1ZHo9zSp4h+/+v/umwNMUB66LnG/BK2FAlQBwBwJb+3Yfq/4xZ8qupBPvTUq0MoxtvGe6pKoFXMXnq1CMXw3DCivmDL0JOuSSjEpFFEvcaWMUfZq03YqEuVW3CddlIEQrFrDFGjgPu0qQRCMW8IEe2iQmwVjbChjqpiFHCTraZJhI24G+XBm/nMhERC0cCkoajB0Kc210YSCYdr2ws4iW8mriakEopxYhcxmMGA01s/oxKmK1qbgPIEA4p7NyMTioNFRNyNpia8hyXohFYdKkPMMFYwobDmbeQfDhg+vj9CuLJEqHwc8PX5EUIR2YnA4VN96iWe6QiIMN19WQAcIUGLhy7P/oUR9j1+QJY+mnP0GKH44/enCmvRTbkvDxLy+1M5ZwCMch8eJVxxOxuPAXAY5/8g2icWvM4mCBkIC2MHJhywAqotA2DBhDihmHE6G7lhIJwVUvM44Tg2Nbe+WGaKYXEKwwk5jchjwmJ7GAiHbNM+zygszV8MhHxGDDjSoOVYJwdh+auRFeNtEYNyj+IgFEueOVFGDG15i8izEPZ5jOhBxYY3vZmQh1CcORA1R7XFezieh3DKUf6mGeplBu/jhYdwyDDrqzVDQya2CMUc9zUSjwFXOgQmQob4sGSIIFaYkIvwGZ0kS13wRvSr/jAXIZw15eiklXtVLsI+utcP8E7ar3QGXIQC9aYJ3oTqcAMbYdUgryGG6d7QjdgIp9hAZEiIGhZWbITvC8J6gtuxN3hzNkLhI/OFggtLxNkwTPgIoYGoFujP702jhI8QGogSzsacTF2Ij3AFAOL7CqMJGQmxGRFthtkLMBJuAVeDRmg2H4ZI8EH1ogpAtEahxSU0R143zxXSXY3eYYCfTPhBdQNDxJ/JhLrSZkwoBvTtBbhmI37bpHZsj25DcOtES0QTss0JnRCKlE5pnYcQnqVPFwECmKssqSNKwQA9Lgwl74k+XBHW+vQJEdrgNzYKgaApFAwmmpCUJCHnEaHMaHOjECiQQtL3xEJeWnVgRCYElqW0KUrSlol0wjMZkPqbtAmYXPlNt+GQaEJi8RydkDwOI2LikriGovdSqi8l5i2JoxDxpdT5kPiL5DJr+nxIzKwRa5XIJgQqh4jrUuIP0ivld+R1qST9XuMmFIuGd0/ErKymb0aB/SElpknMBQEmJK6Br79KqbqkJtaB8yr0iDAl1taCCcdArI1QpkA8NI8cOdrTCQlL7zHNceslHRApbiMsaiaBNMs8XhRyagwpFa4fUwg/aGoM3UjEhOYc5RfCj6YXZIzyA3OhwPKHDKUYeZkIMRNCxRgs1bMvGW0Ind08Inl8lnMILxkIkblQoLV7HCdjXzIQgj+COJr087JeGVhNCM2F8PEnNAtclIEQM6G53OMrsVR5P1VJCJoQLqGVnAOxkhBazgis1uRKyHFG/aEqQmwuTIchWgXNcvTwoSpC1FvjN51gC6qiKgjRUQh3Ut5uWmVDsPir4jROXXF203dCeFnIch0PX4ndO+EIddUcVyuw3KZw0xshbEJTjXUtcZyaueuNEJ0LmQ6RBhwnua8qE6JzoRjznObm8zVlQriKlpw4LInhZNBNJUJ8f00vaCtKwxX7d5UJURMSK+cqxHL7jigT4ibku4WHK1xTJIS3LeCJp6J4jFggxD8bviTNtYZnJBYI4a7PclL9KckSGs4T4iakZw2rxBNWLNgQNSH3fWYs95vkCGETst1r8lTC8NRKjrDWwwFVAg/HVgheQxYIYRNuLFycyJCHehHCJrRxhSlD6PRJCJvQzu3sYAIlT4g6UjDObdQITWI8CFETDuHLMAyCL0p+ECpwO2bvqmR5ZiFE14A2r7sG7wG5E4KO1NY9yXdEaCjeCEETDi1fOw+lGW6EI8yEVi5JzkldgDzGlRB0pPZfuNBA5O1mQ8iRsl5aapCkD6OMEBuFwLHtOojkbpYRQjdrAae26yFStxkpIWTCTWMPzFGTNSkh4kiPFi5iNyLSrOgrxITNWfCKSBqLvgJWpLyhtS8QKcbwAT8cNf4CIuXtNZ/uSJt7c+0lHddewG3PVMBFK0+Rql7dCOOaaMLBuq23Vkc1Z41/aIAbr70ngUcnxnoik2atvlytPdtPHg+af2O1pMDeu+OZwnYfrb5KxvbM2D+1bcCrlFxYMuOf14HH46/SiuPa9rKOrc0RVZJr7q7aP384JtWG1MhnK51KNZj0utJBX1LS5zolNVh2kC+TCrYcfXU1kd3ky6TkOsKqZIbTU4f5MinpnegDcjWPO+ZfKpVCLikjchCtZZfmh4/SwWU5rdNdh/uZ/+kUbQeldNpdZ8evKPeHRfxjeHcpKb315LD5sMNahTs/UT9J91BqSxn0Lud5FG5W44f6xzCaLbfJKJD6l+leUhmoDG48KvvHSP5f2JycnJycnJycnJycnJycnJycnJycnJycuPQvAnyJNeL0SNwAAAAASUVORK5CYII=;" parent="1" vertex="1">
          <mxGeometry x="100" y="310" width="30" height="30" as="geometry" />
        </mxCell>
        <mxCell id="y1X1aUOBeFnpXUIdjmpI-19" style="edgeStyle=orthogonalEdgeStyle;rounded=1;jumpSize=7;orthogonalLoop=1;jettySize=auto;html=1;exitX=1;exitY=0.5;exitDx=0;exitDy=0;entryX=0.5;entryY=1;entryDx=0;entryDy=0;labelBackgroundColor=none;strokeColor=default;strokeWidth=1;fontSize=9;fontColor=none;opacity=50;" parent="1" source="y1X1aUOBeFnpXUIdjmpI-4" target="y1X1aUOBeFnpXUIdjmpI-14" edge="1">
          <mxGeometry relative="1" as="geometry" />
        </mxCell>
        <mxCell id="y1X1aUOBeFnpXUIdjmpI-26" style="edgeStyle=orthogonalEdgeStyle;rounded=1;jumpSize=7;orthogonalLoop=1;jettySize=auto;html=1;entryX=0;entryY=0.5;entryDx=0;entryDy=0;labelBackgroundColor=none;strokeColor=default;strokeWidth=1;fontSize=9;fontColor=none;opacity=50;" parent="1" source="y1X1aUOBeFnpXUIdjmpI-4" target="y1X1aUOBeFnpXUIdjmpI-22" edge="1">
          <mxGeometry relative="1" as="geometry" />
        </mxCell>
        <mxCell id="y1X1aUOBeFnpXUIdjmpI-4" value="" style="shape=image;verticalLabelPosition=bottom;labelBackgroundColor=default;verticalAlign=top;aspect=fixed;imageAspect=0;image=data:image/png,iVBORw0KGgoAAAANSUhEUgAAAOEAAADhCAMAAAAJbSJIAAAAbFBMVEUAlIX///8Ajn4AkYIAlofm9fNSsKUAi3q63tkAkIHv+Pf5/f0Aj372/Pt6vrXB4d2ez8mUy8Ryu7KKxb7h8vA8pprN6OWp1tFIrKCMxr8knZDY7euy2dXR6eYdnY9htKqk1M5ptq0oo5aW0cusWFKYAAAITklEQVR4nO2da7uyKhCGA0yl89myslX7///HrR3VpJ3zDGr74vn0fnivFbcDA8wM0Os5OTk5OTk5OTk5OTk5OTk5OTk5OTk5OTkVpJSWL2mlVNstYlNGFsjEX+xmf9HhEIaH6G82n/jrXhBI+eOgKVwv3u7C40BUaj+dnS9eitl2Q2nS0vMn01U1W06D4+wU/x6lDpLJ1GC5Co338+0vQWqZ7P7bdm+U0Y9AKpks97XxbhpEa63bBvgP6ZEfjol8Vx0nnmwb4oPkaFG/d74ZctZZRt3bfe9bPuoQd3FAam/JxHdlXI/aBipJyQkjX6ph1K2+Gmzx8VfWeNmdriqTKTtfpr7fDTMqvRxaAUx1SDowPcr4aIsv1eActA44sciX6dBrdTQqSyMwr1ZHo9zSp4h+/+v/umwNMUB66LnG/BK2FAlQBwBwJb+3Yfq/4xZ8qupBPvTUq0MoxtvGe6pKoFXMXnq1CMXw3DCivmDL0JOuSSjEpFFEvcaWMUfZq03YqEuVW3CddlIEQrFrDFGjgPu0qQRCMW8IEe2iQmwVjbChjqpiFHCTraZJhI24G+XBm/nMhERC0cCkoajB0Kc210YSCYdr2ws4iW8mriakEopxYhcxmMGA01s/oxKmK1qbgPIEA4p7NyMTioNFRNyNpia8hyXohFYdKkPMMFYwobDmbeQfDhg+vj9CuLJEqHwc8PX5EUIR2YnA4VN96iWe6QiIMN19WQAcIUGLhy7P/oUR9j1+QJY+mnP0GKH44/enCmvRTbkvDxLy+1M5ZwCMch8eJVxxOxuPAXAY5/8g2icWvM4mCBkIC2MHJhywAqotA2DBhDihmHE6G7lhIJwVUvM44Tg2Nbe+WGaKYXEKwwk5jchjwmJ7GAiHbNM+zygszV8MhHxGDDjSoOVYJwdh+auRFeNtEYNyj+IgFEueOVFGDG15i8izEPZ5jOhBxYY3vZmQh1CcORA1R7XFezieh3DKUf6mGeplBu/jhYdwyDDrqzVDQya2CMUc9zUSjwFXOgQmQob4sGSIIFaYkIvwGZ0kS13wRvSr/jAXIZw15eiklXtVLsI+utcP8E7ar3QGXIQC9aYJ3oTqcAMbYdUgryGG6d7QjdgIp9hAZEiIGhZWbITvC8J6gtuxN3hzNkLhI/OFggtLxNkwTPgIoYGoFujP702jhI8QGogSzsacTF2Ij3AFAOL7CqMJGQmxGRFthtkLMBJuAVeDRmg2H4ZI8EH1ogpAtEahxSU0R143zxXSXY3eYYCfTPhBdQNDxJ/JhLrSZkwoBvTtBbhmI37bpHZsj25DcOtES0QTss0JnRCKlE5pnYcQnqVPFwECmKssqSNKwQA9Lgwl74k+XBHW+vQJEdrgNzYKgaApFAwmmpCUJCHnEaHMaHOjECiQQtL3xEJeWnVgRCYElqW0KUrSlol0wjMZkPqbtAmYXPlNt+GQaEJi8RydkDwOI2LikriGovdSqi8l5i2JoxDxpdT5kPiL5DJr+nxIzKwRa5XIJgQqh4jrUuIP0ivld+R1qST9XuMmFIuGd0/ErKymb0aB/SElpknMBQEmJK6Br79KqbqkJtaB8yr0iDAl1taCCcdArI1QpkA8NI8cOdrTCQlL7zHNceslHRApbiMsaiaBNMs8XhRyagwpFa4fUwg/aGoM3UjEhOYc5RfCj6YXZIzyA3OhwPKHDKUYeZkIMRNCxRgs1bMvGW0Ind08Inl8lnMILxkIkblQoLV7HCdjXzIQgj+COJr087JeGVhNCM2F8PEnNAtclIEQM6G53OMrsVR5P1VJCJoQLqGVnAOxkhBazgis1uRKyHFG/aEqQmwuTIchWgXNcvTwoSpC1FvjN51gC6qiKgjRUQh3Ut5uWmVDsPir4jROXXF203dCeFnIch0PX4ndO+EIddUcVyuw3KZw0xshbEJTjXUtcZyaueuNEJ0LmQ6RBhwnua8qE6JzoRjznObm8zVlQriKlpw4LInhZNBNJUJ8f00vaCtKwxX7d5UJURMSK+cqxHL7jigT4ibku4WHK1xTJIS3LeCJp6J4jFggxD8bviTNtYZnJBYI4a7PclL9KckSGs4T4iakZw2rxBNWLNgQNSH3fWYs95vkCGETst1r8lTC8NRKjrDWwwFVAg/HVgheQxYIYRNuLFycyJCHehHCJrRxhSlD6PRJCJvQzu3sYAIlT4g6UjDObdQITWI8CFETDuHLMAyCL0p+ECpwO2bvqmR5ZiFE14A2r7sG7wG5E4KO1NY9yXdEaCjeCEETDi1fOw+lGW6EI8yEVi5JzkldgDzGlRB0pPZfuNBA5O1mQ8iRsl5aapCkD6OMEBuFwLHtOojkbpYRQjdrAae26yFStxkpIWTCTWMPzFGTNSkh4kiPFi5iNyLSrOgrxITNWfCKSBqLvgJWpLyhtS8QKcbwAT8cNf4CIuXtNZ/uSJt7c+0lHddewG3PVMBFK0+Rql7dCOOaaMLBuq23Vkc1Z41/aIAbr70ngUcnxnoik2atvlytPdtPHg+af2O1pMDeu+OZwnYfrb5KxvbM2D+1bcCrlFxYMuOf14HH46/SiuPa9rKOrc0RVZJr7q7aP384JtWG1MhnK51KNZj0utJBX1LS5zolNVh2kC+TCrYcfXU1kd3ky6TkOsKqZIbTU4f5MinpnegDcjWPO+ZfKpVCLikjchCtZZfmh4/SwWU5rdNdh/uZ/+kUbQeldNpdZ8evKPeHRfxjeHcpKb315LD5sMNahTs/UT9J91BqSxn0Lud5FG5W44f6xzCaLbfJKJD6l+leUhmoDG48KvvHSP5f2JycnJycnJycnJycnJycnJycnJycnJycuPQvAnyJNeL0SNwAAAAASUVORK5CYII=;" parent="1" vertex="1">
          <mxGeometry x="100" y="400" width="30" height="30" as="geometry" />
        </mxCell>
        <mxCell id="y1X1aUOBeFnpXUIdjmpI-8" value="/Login" style="text;strokeColor=none;fillColor=none;html=1;fontSize=9;fontStyle=1;verticalAlign=middle;align=center;textOpacity=70;" parent="1" vertex="1">
          <mxGeometry x="92.5" y="440" width="45" height="10" as="geometry" />
        </mxCell>
        <mxCell id="y1X1aUOBeFnpXUIdjmpI-9" value="/Register" style="text;strokeColor=none;fillColor=none;html=1;fontSize=9;fontStyle=1;verticalAlign=middle;align=center;textOpacity=70;" parent="1" vertex="1">
          <mxGeometry x="92.5" y="345.75" width="45" height="10" as="geometry" />
        </mxCell>
        <mxCell id="y1X1aUOBeFnpXUIdjmpI-10" value="Device" style="text;strokeColor=none;fillColor=none;html=1;fontSize=9;fontStyle=1;verticalAlign=middle;align=center;textOpacity=70;" parent="1" vertex="1">
          <mxGeometry x="30" y="390" width="45" height="10" as="geometry" />
        </mxCell>
        <mxCell id="y1X1aUOBeFnpXUIdjmpI-11" style="edgeStyle=orthogonalEdgeStyle;rounded=1;orthogonalLoop=1;jettySize=auto;html=1;entryX=0;entryY=0.25;entryDx=0;entryDy=0;fontColor=none;noLabel=1;labelBackgroundColor=none;strokeColor=default;strokeWidth=1;jumpSize=7;opacity=50;" parent="1" edge="1">
          <mxGeometry relative="1" as="geometry">
            <mxPoint x="35" y="360" as="sourcePoint" />
            <mxPoint x="100" y="317.5" as="targetPoint" />
            <Array as="points">
              <mxPoint x="35" y="318" />
              <mxPoint x="75" y="318" />
            </Array>
          </mxGeometry>
        </mxCell>
        <mxCell id="y1X1aUOBeFnpXUIdjmpI-14" value="" style="shape=image;verticalLabelPosition=bottom;labelBackgroundColor=default;verticalAlign=top;aspect=fixed;imageAspect=0;image=data:image/png,iVBORw0KGgoAAAANSUhEUgAAAPsAAADJCAMAAADSHrQyAAABBVBMVEX///8AlUYArkIAr0IAIC8Al0YAHy8AHSwAFCYAmkWOlprz9fUAGCnv8PHq7O37/PzJzc8uP0sAk0Hf4eMpOkUQKTdGU11dZ3AAkDq9wsUAABfc3+EAqjYAqC0ApyYAjTL0/PkAtEu0xMGepakLJTMACh8cLzs2RU/3/vvq+PBnxYC5xcVpc3uvtbnR1Nd1foSAiY5QXGSco6cAAABfaXG3vMBrdXx2x5TD69IAkhlFvmsAmjGKxp8ApENZw3pYt4Kr28DV7t+V27AaoFc1p2Vsvo6o4b2U0K98wZa56Mt00Zml2r4vu19tzIyq4LwQsF9Jv4ZlvZWcx7ZlrocAowuIv6gAABCOe7WcAAAIfElEQVR4nO2ae5uiyBWHUWqE5W4DdiP2TaFoewTUUXfSSfduz0wus5nOJptkvv9HSVEFKl528jyJXc8W5/1HRO0+P861CiQJAAAAAAAAAAAAAAAAAAAAAAAAAAAAAAAAAIDfAjdj3hbwY/w9bwv48f53d7xN4MbD7//A2wRevFw+XjQz4++eLuXHsx94m8GDm4dBW35sXfyZtyGvD5Xefmy1rn/kbcprU0gnEO1vrt/zNuZ1sZ+o9Ha7RcRfNEv8y2V7rb3Vunjmbc8r8qGSzrSfvWmO+PeXpMxtaW+dfWzKfHdzy3TLa+2ti6a0+ZdBu12LecJ1M9r8+6vS61t+J+KbkPJ3t3J73++ts0+8DXsFNjW+4E2rQVF/M2gf1t4Sf0n3/WBT5He0/5G3bSfmZiAf87vw5e7DoC0f0y6449dFXi6b3Lb21rXQGf/5qnI4uwZyTfuF0Lt3T/Uqv6O9dXbD28DTMR5s3M6ivq5d5D2cP122f93vAg9394Nf1y5wtbsbtDcdTj6kXdxd2+ermnSS7rvaxQ36D1shf6jHiTzU329P8oe1i1rpi6GuNtDu9Tji97/wtvI0jC/r0g/5XdRdy8817QfrvLBdrix1tVK/r/1H3maehJ/qk4182O9/5W3mSdhdyBzULugi/kn+dq1rCfowwpfmar+7rc90R7QLOdXe3Lb3OKD94w1vQ09AXbt8pL+3BNUubwX7Mb+Lqn1XOTn4rhkxX9T5cpJdX4ID2oWsdUV/Z8Nce3Owr13M2eZ+sJ/v+9qF7O/lPL894Mj72gVdwLMd6vruxZ52Qddxz/+VdjEfNLTl/b2L/ZgXc+9Cuperee5ovp99EnPPavtRG/lIfxe01EnS+GpnuNnXLmi6Ex7WEx0bbRp0b2Id9DJN/APaBX62dPv++8F13IWYO5WUl8HOWmZH+3eCVvmC56v1VMuKXkOqPOW+fit2R7vYT9g9bz9E3d56lpgONuJWOspL3fENcnvtWWJ5x+8CN7iSv121N7Wurl3YuWbNw2Azzj9uR7ywzxltGA/Wazn5561CJ+Ym5Q6fr6r9Svnns8YUupKfqrXs4O9r7YLuVe3zUBb7wT8q7eLX+DVfmPjLXyrpjUh2xpgl/OXbj0y6oE9XHWbMtu6CfxZBf/ZG/M6+zfh2QFpc8Mt1EfA3vK15ZcZfBoMfguDT2XWDcn3N07/+/XY4bMI4d4APQ0LI2wpOELcPLd5GcMIh2m3eRnAiGw7f8raBF+Fw6PC2gRduc0udZA2HLm8beKEPhyZvG3hhN7fMN1q79LaxLY4kvM7bAgAAAAAAAAAAAOD/gRmaBMslWJulnmtVJwVe/tkzw0uSxPd91PGSScqkZlHUTRLcQQgnE2H3d23LWUU+Woaus8yxqvSoUt1dJj7KnSBdKFFnxNvI02Fi3GX7WVaOfJSysxpiR2mEI3F3eHXP71ZZrXUwysojxIJ9EikpJ8tOz7Z2aRVFMxoEWqfDtJMA0DhZdnpq2l2MVep4Da21q7yrne4EkhSO5kHhlWw0X262nM2llmvL6taD5ZDa5ExXo7UeK80n06VFfsa+Y420Ffs77C9va5dWPnNzFfP2eTw5oaxvo48mPXVqrlCsqlPJnah91ZhUxo+82XSB4mRJjs3prGvMrFk/RkavFDTCk1EeK93zmWrRr/iT6axvzKoKVtc+Qv6ieCUxH0i2bWloyrfF28sF8pPZPHMWUbTozZ3gHKlz9tm0X/SgMEEKCQw97UW4m2jpqBcpU/r56F3hx0D1k17xCysxSEzbAUJeGSl17QHyacJrCHd7vQQrScr7ZpY9i5LCa3ov6hW26LOI+TXtUzdJIfaTwmaz69MvmonvFed1g3pbmkUz+r1Fn7XrVCmvzY72bK3dz9P5aOUhJeGd7yuFadQMVodTBRdBq/eMcvTQqOM3IrUO7cth32BvFXopwjguY72LO0xxXbuD/HOmneW7O4l8Pzulsm8zUahJ0lJNaAwGBtWeFWlJyeKIFikSEPR9akQhPW1Qv49Ueu3mCip1apHB/FnXnnainH5c1Xn93EerUyr7NhvtXaolY9odBZXaXT+iQVxpD1Sq3eorNDAWX+n3pigqdaZKh80sde3TSC2K5ka7FCi4y/cxpV3tTqndQGXMm110SLu0UjF5dd6xAWWK1DLmA4XlSF27nfhdGlcb7ZmPveJf2txu5B7R7kYsRIupxKB+3NWur3zjfJKUc2mqqEF1FLMCXtOeIpVdyyrfi+oXLWzJdjOLV7M7EPPUGb3IYwEZxrgs6KV2ozI+nzhOZbYbs/ZNMl89L09h7FUfZ9goczuPqkIyVwySBaETOC4nz0/KOp8aa7/T11QtHa/1WVT3yjpPtNPy7E7i5dbfIYMBe5vE5aWxyBhbHjqempeXYVLOd8W5IpecMF2aXDq9HSZRr7jsVt7BATFP15QoLdxg56oytXR9FOf0beaT/l58IY+iuUlOzb9ifJ5PpyOHes30yOLUtM28X2ZBqEUY46njZOmiX6WGG3R97I8cxyGfzm2q3clcHiVPn3he4nU1KUi8pOvlZIzzuonXKzLe1rw+Snql1atO5CN/Rap+x/dVLyt+iyNFVZERz6jbrBX+ipNkVvZsx/c97PtGbPjeqhrhMoywR34fI9zTWG200jDgM+O4rmmaoSXZxeaaqZM4sEzTCssthyBYOmUqBk5BJunLjLwWESJZaLHKFwnCRlkVw2C5DKvUNV3XzehvrE1E6255NjQ3Sx4uXv/fCNj+i+54fsLbllcm+FrtPARxj6slr083LluVFL6bc7Xk9TlXqmFcw1wN4YATq5pOxjI99cTdbj1Givt4li96ucB3WI5ipdOpNmqe0wEAAAAAAAAAAAAAAAAAAAAAAAAAAAAAAADgN8t/AFkzxOsJTVNaAAAAAElFTkSuQmCC;" parent="1" vertex="1">
          <mxGeometry x="150" y="355" width="49.95" height="40" as="geometry" />
        </mxCell>
        <mxCell id="y1X1aUOBeFnpXUIdjmpI-35" value="" style="edgeStyle=orthogonalEdgeStyle;rounded=1;jumpSize=7;orthogonalLoop=1;jettySize=auto;html=1;labelBackgroundColor=none;strokeColor=default;strokeWidth=1;fontSize=9;fontColor=none;opacity=50;" parent="1" source="y1X1aUOBeFnpXUIdjmpI-21" target="y1X1aUOBeFnpXUIdjmpI-33" edge="1">
          <mxGeometry relative="1" as="geometry" />
        </mxCell>
        <mxCell id="y1X1aUOBeFnpXUIdjmpI-21" value="" style="shape=image;verticalLabelPosition=bottom;labelBackgroundColor=default;verticalAlign=top;aspect=fixed;imageAspect=0;image=data:image/png,iVBORw0KGgoAAAANSUhEUgAAAOEAAADhCAMAAAAJbSJIAAAAbFBMVEUAlIX///8Ajn4AkYIAlofm9fNSsKUAi3q63tkAkIHv+Pf5/f0Aj372/Pt6vrXB4d2ez8mUy8Ryu7KKxb7h8vA8pprN6OWp1tFIrKCMxr8knZDY7euy2dXR6eYdnY9htKqk1M5ptq0oo5aW0cusWFKYAAAITklEQVR4nO2da7uyKhCGA0yl89myslX7///HrR3VpJ3zDGr74vn0fnivFbcDA8wM0Os5OTk5OTk5OTk5OTk5OTk5OTk5OTk5OTkVpJSWL2mlVNstYlNGFsjEX+xmf9HhEIaH6G82n/jrXhBI+eOgKVwv3u7C40BUaj+dnS9eitl2Q2nS0vMn01U1W06D4+wU/x6lDpLJ1GC5Co338+0vQWqZ7P7bdm+U0Y9AKpks97XxbhpEa63bBvgP6ZEfjol8Vx0nnmwb4oPkaFG/d74ZctZZRt3bfe9bPuoQd3FAam/JxHdlXI/aBipJyQkjX6ph1K2+Gmzx8VfWeNmdriqTKTtfpr7fDTMqvRxaAUx1SDowPcr4aIsv1eActA44sciX6dBrdTQqSyMwr1ZHo9zSp4h+/+v/umwNMUB66LnG/BK2FAlQBwBwJb+3Yfq/4xZ8qupBPvTUq0MoxtvGe6pKoFXMXnq1CMXw3DCivmDL0JOuSSjEpFFEvcaWMUfZq03YqEuVW3CddlIEQrFrDFGjgPu0qQRCMW8IEe2iQmwVjbChjqpiFHCTraZJhI24G+XBm/nMhERC0cCkoajB0Kc210YSCYdr2ws4iW8mriakEopxYhcxmMGA01s/oxKmK1qbgPIEA4p7NyMTioNFRNyNpia8hyXohFYdKkPMMFYwobDmbeQfDhg+vj9CuLJEqHwc8PX5EUIR2YnA4VN96iWe6QiIMN19WQAcIUGLhy7P/oUR9j1+QJY+mnP0GKH44/enCmvRTbkvDxLy+1M5ZwCMch8eJVxxOxuPAXAY5/8g2icWvM4mCBkIC2MHJhywAqotA2DBhDihmHE6G7lhIJwVUvM44Tg2Nbe+WGaKYXEKwwk5jchjwmJ7GAiHbNM+zygszV8MhHxGDDjSoOVYJwdh+auRFeNtEYNyj+IgFEueOVFGDG15i8izEPZ5jOhBxYY3vZmQh1CcORA1R7XFezieh3DKUf6mGeplBu/jhYdwyDDrqzVDQya2CMUc9zUSjwFXOgQmQob4sGSIIFaYkIvwGZ0kS13wRvSr/jAXIZw15eiklXtVLsI+utcP8E7ar3QGXIQC9aYJ3oTqcAMbYdUgryGG6d7QjdgIp9hAZEiIGhZWbITvC8J6gtuxN3hzNkLhI/OFggtLxNkwTPgIoYGoFujP702jhI8QGogSzsacTF2Ij3AFAOL7CqMJGQmxGRFthtkLMBJuAVeDRmg2H4ZI8EH1ogpAtEahxSU0R143zxXSXY3eYYCfTPhBdQNDxJ/JhLrSZkwoBvTtBbhmI37bpHZsj25DcOtES0QTss0JnRCKlE5pnYcQnqVPFwECmKssqSNKwQA9Lgwl74k+XBHW+vQJEdrgNzYKgaApFAwmmpCUJCHnEaHMaHOjECiQQtL3xEJeWnVgRCYElqW0KUrSlol0wjMZkPqbtAmYXPlNt+GQaEJi8RydkDwOI2LikriGovdSqi8l5i2JoxDxpdT5kPiL5DJr+nxIzKwRa5XIJgQqh4jrUuIP0ivld+R1qST9XuMmFIuGd0/ErKymb0aB/SElpknMBQEmJK6Br79KqbqkJtaB8yr0iDAl1taCCcdArI1QpkA8NI8cOdrTCQlL7zHNceslHRApbiMsaiaBNMs8XhRyagwpFa4fUwg/aGoM3UjEhOYc5RfCj6YXZIzyA3OhwPKHDKUYeZkIMRNCxRgs1bMvGW0Ind08Inl8lnMILxkIkblQoLV7HCdjXzIQgj+COJr087JeGVhNCM2F8PEnNAtclIEQM6G53OMrsVR5P1VJCJoQLqGVnAOxkhBazgis1uRKyHFG/aEqQmwuTIchWgXNcvTwoSpC1FvjN51gC6qiKgjRUQh3Ut5uWmVDsPir4jROXXF203dCeFnIch0PX4ndO+EIddUcVyuw3KZw0xshbEJTjXUtcZyaueuNEJ0LmQ6RBhwnua8qE6JzoRjznObm8zVlQriKlpw4LInhZNBNJUJ8f00vaCtKwxX7d5UJURMSK+cqxHL7jigT4ibku4WHK1xTJIS3LeCJp6J4jFggxD8bviTNtYZnJBYI4a7PclL9KckSGs4T4iakZw2rxBNWLNgQNSH3fWYs95vkCGETst1r8lTC8NRKjrDWwwFVAg/HVgheQxYIYRNuLFycyJCHehHCJrRxhSlD6PRJCJvQzu3sYAIlT4g6UjDObdQITWI8CFETDuHLMAyCL0p+ECpwO2bvqmR5ZiFE14A2r7sG7wG5E4KO1NY9yXdEaCjeCEETDi1fOw+lGW6EI8yEVi5JzkldgDzGlRB0pPZfuNBA5O1mQ8iRsl5aapCkD6OMEBuFwLHtOojkbpYRQjdrAae26yFStxkpIWTCTWMPzFGTNSkh4kiPFi5iNyLSrOgrxITNWfCKSBqLvgJWpLyhtS8QKcbwAT8cNf4CIuXtNZ/uSJt7c+0lHddewG3PVMBFK0+Rql7dCOOaaMLBuq23Vkc1Z41/aIAbr70ngUcnxnoik2atvlytPdtPHg+af2O1pMDeu+OZwnYfrb5KxvbM2D+1bcCrlFxYMuOf14HH46/SiuPa9rKOrc0RVZJr7q7aP384JtWG1MhnK51KNZj0utJBX1LS5zolNVh2kC+TCrYcfXU1kd3ky6TkOsKqZIbTU4f5MinpnegDcjWPO+ZfKpVCLikjchCtZZfmh4/SwWU5rdNdh/uZ/+kUbQeldNpdZ8evKPeHRfxjeHcpKb315LD5sMNahTs/UT9J91BqSxn0Lud5FG5W44f6xzCaLbfJKJD6l+leUhmoDG48KvvHSP5f2JycnJycnJycnJycnJycnJycnJycnJycuPQvAnyJNeL0SNwAAAAASUVORK5CYII=;" parent="1" vertex="1">
          <mxGeometry x="230" y="310" width="30" height="30" as="geometry" />
        </mxCell>
        <mxCell id="y1X1aUOBeFnpXUIdjmpI-37" value="" style="edgeStyle=orthogonalEdgeStyle;rounded=1;jumpSize=7;orthogonalLoop=1;jettySize=auto;html=1;labelBackgroundColor=none;strokeColor=default;strokeWidth=1;fontSize=9;fontColor=none;opacity=50;" parent="1" source="y1X1aUOBeFnpXUIdjmpI-22" target="y1X1aUOBeFnpXUIdjmpI-36" edge="1">
          <mxGeometry relative="1" as="geometry" />
        </mxCell>
        <mxCell id="y1X1aUOBeFnpXUIdjmpI-22" value="" style="shape=image;verticalLabelPosition=bottom;labelBackgroundColor=default;verticalAlign=top;aspect=fixed;imageAspect=0;image=data:image/png,iVBORw0KGgoAAAANSUhEUgAAAOEAAADhCAMAAAAJbSJIAAAAbFBMVEUAlIX///8Ajn4AkYIAlofm9fNSsKUAi3q63tkAkIHv+Pf5/f0Aj372/Pt6vrXB4d2ez8mUy8Ryu7KKxb7h8vA8pprN6OWp1tFIrKCMxr8knZDY7euy2dXR6eYdnY9htKqk1M5ptq0oo5aW0cusWFKYAAAITklEQVR4nO2da7uyKhCGA0yl89myslX7///HrR3VpJ3zDGr74vn0fnivFbcDA8wM0Os5OTk5OTk5OTk5OTk5OTk5OTk5OTk5OTkVpJSWL2mlVNstYlNGFsjEX+xmf9HhEIaH6G82n/jrXhBI+eOgKVwv3u7C40BUaj+dnS9eitl2Q2nS0vMn01U1W06D4+wU/x6lDpLJ1GC5Co338+0vQWqZ7P7bdm+U0Y9AKpks97XxbhpEa63bBvgP6ZEfjol8Vx0nnmwb4oPkaFG/d74ZctZZRt3bfe9bPuoQd3FAam/JxHdlXI/aBipJyQkjX6ph1K2+Gmzx8VfWeNmdriqTKTtfpr7fDTMqvRxaAUx1SDowPcr4aIsv1eActA44sciX6dBrdTQqSyMwr1ZHo9zSp4h+/+v/umwNMUB66LnG/BK2FAlQBwBwJb+3Yfq/4xZ8qupBPvTUq0MoxtvGe6pKoFXMXnq1CMXw3DCivmDL0JOuSSjEpFFEvcaWMUfZq03YqEuVW3CddlIEQrFrDFGjgPu0qQRCMW8IEe2iQmwVjbChjqpiFHCTraZJhI24G+XBm/nMhERC0cCkoajB0Kc210YSCYdr2ws4iW8mriakEopxYhcxmMGA01s/oxKmK1qbgPIEA4p7NyMTioNFRNyNpia8hyXohFYdKkPMMFYwobDmbeQfDhg+vj9CuLJEqHwc8PX5EUIR2YnA4VN96iWe6QiIMN19WQAcIUGLhy7P/oUR9j1+QJY+mnP0GKH44/enCmvRTbkvDxLy+1M5ZwCMch8eJVxxOxuPAXAY5/8g2icWvM4mCBkIC2MHJhywAqotA2DBhDihmHE6G7lhIJwVUvM44Tg2Nbe+WGaKYXEKwwk5jchjwmJ7GAiHbNM+zygszV8MhHxGDDjSoOVYJwdh+auRFeNtEYNyj+IgFEueOVFGDG15i8izEPZ5jOhBxYY3vZmQh1CcORA1R7XFezieh3DKUf6mGeplBu/jhYdwyDDrqzVDQya2CMUc9zUSjwFXOgQmQob4sGSIIFaYkIvwGZ0kS13wRvSr/jAXIZw15eiklXtVLsI+utcP8E7ar3QGXIQC9aYJ3oTqcAMbYdUgryGG6d7QjdgIp9hAZEiIGhZWbITvC8J6gtuxN3hzNkLhI/OFggtLxNkwTPgIoYGoFujP702jhI8QGogSzsacTF2Ij3AFAOL7CqMJGQmxGRFthtkLMBJuAVeDRmg2H4ZI8EH1ogpAtEahxSU0R143zxXSXY3eYYCfTPhBdQNDxJ/JhLrSZkwoBvTtBbhmI37bpHZsj25DcOtES0QTss0JnRCKlE5pnYcQnqVPFwECmKssqSNKwQA9Lgwl74k+XBHW+vQJEdrgNzYKgaApFAwmmpCUJCHnEaHMaHOjECiQQtL3xEJeWnVgRCYElqW0KUrSlol0wjMZkPqbtAmYXPlNt+GQaEJi8RydkDwOI2LikriGovdSqi8l5i2JoxDxpdT5kPiL5DJr+nxIzKwRa5XIJgQqh4jrUuIP0ivld+R1qST9XuMmFIuGd0/ErKymb0aB/SElpknMBQEmJK6Br79KqbqkJtaB8yr0iDAl1taCCcdArI1QpkA8NI8cOdrTCQlL7zHNceslHRApbiMsaiaBNMs8XhRyagwpFa4fUwg/aGoM3UjEhOYc5RfCj6YXZIzyA3OhwPKHDKUYeZkIMRNCxRgs1bMvGW0Ind08Inl8lnMILxkIkblQoLV7HCdjXzIQgj+COJr087JeGVhNCM2F8PEnNAtclIEQM6G53OMrsVR5P1VJCJoQLqGVnAOxkhBazgis1uRKyHFG/aEqQmwuTIchWgXNcvTwoSpC1FvjN51gC6qiKgjRUQh3Ut5uWmVDsPir4jROXXF203dCeFnIch0PX4ndO+EIddUcVyuw3KZw0xshbEJTjXUtcZyaueuNEJ0LmQ6RBhwnua8qE6JzoRjznObm8zVlQriKlpw4LInhZNBNJUJ8f00vaCtKwxX7d5UJURMSK+cqxHL7jigT4ibku4WHK1xTJIS3LeCJp6J4jFggxD8bviTNtYZnJBYI4a7PclL9KckSGs4T4iakZw2rxBNWLNgQNSH3fWYs95vkCGETst1r8lTC8NRKjrDWwwFVAg/HVgheQxYIYRNuLFycyJCHehHCJrRxhSlD6PRJCJvQzu3sYAIlT4g6UjDObdQITWI8CFETDuHLMAyCL0p+ECpwO2bvqmR5ZiFE14A2r7sG7wG5E4KO1NY9yXdEaCjeCEETDi1fOw+lGW6EI8yEVi5JzkldgDzGlRB0pPZfuNBA5O1mQ8iRsl5aapCkD6OMEBuFwLHtOojkbpYRQjdrAae26yFStxkpIWTCTWMPzFGTNSkh4kiPFi5iNyLSrOgrxITNWfCKSBqLvgJWpLyhtS8QKcbwAT8cNf4CIuXtNZ/uSJt7c+0lHddewG3PVMBFK0+Rql7dCOOaaMLBuq23Vkc1Z41/aIAbr70ngUcnxnoik2atvlytPdtPHg+af2O1pMDeu+OZwnYfrb5KxvbM2D+1bcCrlFxYMuOf14HH46/SiuPa9rKOrc0RVZJr7q7aP384JtWG1MhnK51KNZj0utJBX1LS5zolNVh2kC+TCrYcfXU1kd3ky6TkOsKqZIbTU4f5MinpnegDcjWPO+ZfKpVCLikjchCtZZfmh4/SwWU5rdNdh/uZ/+kUbQeldNpdZ8evKPeHRfxjeHcpKb315LD5sMNahTs/UT9J91BqSxn0Lud5FG5W44f6xzCaLbfJKJD6l+leUhmoDG48KvvHSP5f2JycnJycnJycnJycnJycnJycnJycnJycuPQvAnyJNeL0SNwAAAAASUVORK5CYII=;" parent="1" vertex="1">
          <mxGeometry x="230" y="400" width="30" height="30" as="geometry" />
        </mxCell>
        <mxCell id="y1X1aUOBeFnpXUIdjmpI-24" value="/loginembedding" style="text;strokeColor=none;fillColor=none;html=1;fontSize=9;fontStyle=1;verticalAlign=middle;align=center;textOpacity=70;" parent="1" vertex="1">
          <mxGeometry x="222.5" y="440" width="45" height="10" as="geometry" />
        </mxCell>
        <mxCell id="y1X1aUOBeFnpXUIdjmpI-29" value="Face Detection" style="text;strokeColor=none;fillColor=none;html=1;fontSize=9;fontStyle=1;verticalAlign=middle;align=center;textOpacity=70;" parent="1" vertex="1">
          <mxGeometry x="295.88" y="350" width="45" height="10" as="geometry" />
        </mxCell>
        <mxCell id="y1X1aUOBeFnpXUIdjmpI-40" value="" style="edgeStyle=orthogonalEdgeStyle;rounded=1;jumpSize=7;orthogonalLoop=1;jettySize=auto;html=1;labelBackgroundColor=none;strokeColor=default;strokeWidth=1;fontSize=9;fontColor=none;opacity=50;" parent="1" source="y1X1aUOBeFnpXUIdjmpI-33" target="y1X1aUOBeFnpXUIdjmpI-39" edge="1">
          <mxGeometry relative="1" as="geometry" />
        </mxCell>
        <mxCell id="y1X1aUOBeFnpXUIdjmpI-33" value="" style="shape=image;verticalLabelPosition=bottom;labelBackgroundColor=default;verticalAlign=top;aspect=fixed;imageAspect=0;image=https://www.kindpng.com/picc/m/381-3819158_facial-recognition-facial-image-recognition-logo-hd-png.png;" parent="1" vertex="1">
          <mxGeometry x="300" y="305" width="36.77" height="40" as="geometry" />
        </mxCell>
        <mxCell id="y1X1aUOBeFnpXUIdjmpI-42" value="" style="edgeStyle=orthogonalEdgeStyle;rounded=1;jumpSize=7;orthogonalLoop=1;jettySize=auto;html=1;labelBackgroundColor=none;strokeColor=default;strokeWidth=1;fontSize=9;fontColor=none;opacity=50;" parent="1" source="y1X1aUOBeFnpXUIdjmpI-36" target="y1X1aUOBeFnpXUIdjmpI-41" edge="1">
          <mxGeometry relative="1" as="geometry" />
        </mxCell>
        <mxCell id="y1X1aUOBeFnpXUIdjmpI-36" value="" style="shape=image;verticalLabelPosition=bottom;labelBackgroundColor=default;verticalAlign=top;aspect=fixed;imageAspect=0;image=https://www.kindpng.com/picc/m/381-3819158_facial-recognition-facial-image-recognition-logo-hd-png.png;" parent="1" vertex="1">
          <mxGeometry x="300" y="395" width="36.77" height="40" as="geometry" />
        </mxCell>
        <mxCell id="y1X1aUOBeFnpXUIdjmpI-38" value="Face Detection" style="text;strokeColor=none;fillColor=none;html=1;fontSize=9;fontStyle=1;verticalAlign=middle;align=center;textOpacity=70;" parent="1" vertex="1">
          <mxGeometry x="295.88" y="440" width="45" height="10" as="geometry" />
        </mxCell>
        <mxCell id="y1X1aUOBeFnpXUIdjmpI-48" value="" style="edgeStyle=orthogonalEdgeStyle;rounded=1;jumpSize=7;orthogonalLoop=1;jettySize=auto;html=1;labelBackgroundColor=none;strokeColor=default;strokeWidth=1;fontSize=9;fontColor=none;opacity=50;" parent="1" source="y1X1aUOBeFnpXUIdjmpI-39" target="y1X1aUOBeFnpXUIdjmpI-47" edge="1">
          <mxGeometry relative="1" as="geometry" />
        </mxCell>
        <mxCell id="y1X1aUOBeFnpXUIdjmpI-39" value="" style="shape=image;html=1;verticalAlign=top;verticalLabelPosition=bottom;labelBackgroundColor=#ffffff;imageAspect=0;aspect=fixed;image=https://cdn1.iconfinder.com/data/icons/ios-11-glyphs/30/face_ID-128.png;fontSize=9;fontColor=none;" parent="1" vertex="1">
          <mxGeometry x="392" y="304.25" width="41.5" height="41.5" as="geometry" />
        </mxCell>
        <mxCell id="y1X1aUOBeFnpXUIdjmpI-50" value="" style="edgeStyle=orthogonalEdgeStyle;rounded=1;jumpSize=7;orthogonalLoop=1;jettySize=auto;html=1;labelBackgroundColor=none;strokeColor=default;strokeWidth=1;fontSize=9;fontColor=none;opacity=50;" parent="1" source="y1X1aUOBeFnpXUIdjmpI-41" target="y1X1aUOBeFnpXUIdjmpI-49" edge="1">
          <mxGeometry relative="1" as="geometry" />
        </mxCell>
        <mxCell id="y1X1aUOBeFnpXUIdjmpI-41" value="" style="shape=image;html=1;verticalAlign=top;verticalLabelPosition=bottom;labelBackgroundColor=#ffffff;imageAspect=0;aspect=fixed;image=https://cdn1.iconfinder.com/data/icons/ios-11-glyphs/30/face_ID-128.png;fontSize=9;fontColor=none;" parent="1" vertex="1">
          <mxGeometry x="392" y="395" width="41.5" height="41.5" as="geometry" />
        </mxCell>
        <mxCell id="y1X1aUOBeFnpXUIdjmpI-45" value="Embedding extraction" style="text;strokeColor=none;fillColor=none;html=1;fontSize=9;fontStyle=1;verticalAlign=middle;align=center;textOpacity=70;" parent="1" vertex="1">
          <mxGeometry x="390.25" y="290" width="45" height="10" as="geometry" />
        </mxCell>
        <mxCell id="y1X1aUOBeFnpXUIdjmpI-46" value="Embedding extraction" style="text;strokeColor=none;fillColor=none;html=1;fontSize=9;fontStyle=1;verticalAlign=middle;align=center;textOpacity=70;" parent="1" vertex="1">
          <mxGeometry x="392" y="385" width="45" height="10" as="geometry" />
        </mxCell>
        <mxCell id="y1X1aUOBeFnpXUIdjmpI-53" value="" style="edgeStyle=orthogonalEdgeStyle;rounded=1;jumpSize=7;orthogonalLoop=1;jettySize=auto;html=1;labelBackgroundColor=none;strokeColor=default;strokeWidth=1;fontSize=9;fontColor=none;opacity=50;" parent="1" source="y1X1aUOBeFnpXUIdjmpI-47" target="y1X1aUOBeFnpXUIdjmpI-49" edge="1">
          <mxGeometry relative="1" as="geometry" />
        </mxCell>
        <mxCell id="y1X1aUOBeFnpXUIdjmpI-60" style="edgeStyle=orthogonalEdgeStyle;rounded=1;jumpSize=7;orthogonalLoop=1;jettySize=auto;html=1;entryX=0;entryY=0.5;entryDx=0;entryDy=0;labelBackgroundColor=none;strokeColor=default;strokeWidth=1;fontSize=9;fontColor=none;opacity=50;" parent="1" source="y1X1aUOBeFnpXUIdjmpI-47" target="y1X1aUOBeFnpXUIdjmpI-56" edge="1">
          <mxGeometry relative="1" as="geometry" />
        </mxCell>
        <mxCell id="y1X1aUOBeFnpXUIdjmpI-47" value="" style="shape=image;verticalLabelPosition=bottom;labelBackgroundColor=default;verticalAlign=top;aspect=fixed;imageAspect=0;image=data:image/png,iVBORw0KGgoAAAANSUhEUgAAAPsAAADJCAMAAADSHrQyAAABBVBMVEX///8AlUYArkIAr0IAIC8Al0YAHy8AHSwAFCYAmkWOlprz9fUAGCnv8PHq7O37/PzJzc8uP0sAk0Hf4eMpOkUQKTdGU11dZ3AAkDq9wsUAABfc3+EAqjYAqC0ApyYAjTL0/PkAtEu0xMGepakLJTMACh8cLzs2RU/3/vvq+PBnxYC5xcVpc3uvtbnR1Nd1foSAiY5QXGSco6cAAABfaXG3vMBrdXx2x5TD69IAkhlFvmsAmjGKxp8ApENZw3pYt4Kr28DV7t+V27AaoFc1p2Vsvo6o4b2U0K98wZa56Mt00Zml2r4vu19tzIyq4LwQsF9Jv4ZlvZWcx7ZlrocAowuIv6gAABCOe7WcAAAIfElEQVR4nO2ae5uiyBWHUWqE5W4DdiP2TaFoewTUUXfSSfduz0wus5nOJptkvv9HSVEFKl528jyJXc8W5/1HRO0+P861CiQJAAAAAAAAAAAAAAAAAAAAAAAAAAAAAAAAAIDfAjdj3hbwY/w9bwv48f53d7xN4MbD7//A2wRevFw+XjQz4++eLuXHsx94m8GDm4dBW35sXfyZtyGvD5Xefmy1rn/kbcprU0gnEO1vrt/zNuZ1sZ+o9Ha7RcRfNEv8y2V7rb3Vunjmbc8r8qGSzrSfvWmO+PeXpMxtaW+dfWzKfHdzy3TLa+2ti6a0+ZdBu12LecJ1M9r8+6vS61t+J+KbkPJ3t3J73++ts0+8DXsFNjW+4E2rQVF/M2gf1t4Sf0n3/WBT5He0/5G3bSfmZiAf87vw5e7DoC0f0y6449dFXi6b3Lb21rXQGf/5qnI4uwZyTfuF0Lt3T/Uqv6O9dXbD28DTMR5s3M6ivq5d5D2cP122f93vAg9394Nf1y5wtbsbtDcdTj6kXdxd2+ermnSS7rvaxQ36D1shf6jHiTzU329P8oe1i1rpi6GuNtDu9Tji97/wtvI0jC/r0g/5XdRdy8817QfrvLBdrix1tVK/r/1H3maehJ/qk4182O9/5W3mSdhdyBzULugi/kn+dq1rCfowwpfmar+7rc90R7QLOdXe3Lb3OKD94w1vQ09AXbt8pL+3BNUubwX7Mb+Lqn1XOTn4rhkxX9T5cpJdX4ID2oWsdUV/Z8Nce3Owr13M2eZ+sJ/v+9qF7O/lPL894Mj72gVdwLMd6vruxZ52Qddxz/+VdjEfNLTl/b2L/ZgXc+9Cuperee5ovp99EnPPavtRG/lIfxe01EnS+GpnuNnXLmi6Ex7WEx0bbRp0b2Id9DJN/APaBX62dPv++8F13IWYO5WUl8HOWmZH+3eCVvmC56v1VMuKXkOqPOW+fit2R7vYT9g9bz9E3d56lpgONuJWOspL3fENcnvtWWJ5x+8CN7iSv121N7Wurl3YuWbNw2Azzj9uR7ywzxltGA/Wazn5561CJ+Ym5Q6fr6r9Svnns8YUupKfqrXs4O9r7YLuVe3zUBb7wT8q7eLX+DVfmPjLXyrpjUh2xpgl/OXbj0y6oE9XHWbMtu6CfxZBf/ZG/M6+zfh2QFpc8Mt1EfA3vK15ZcZfBoMfguDT2XWDcn3N07/+/XY4bMI4d4APQ0LI2wpOELcPLd5GcMIh2m3eRnAiGw7f8raBF+Fw6PC2gRduc0udZA2HLm8beKEPhyZvG3hhN7fMN1q79LaxLY4kvM7bAgAAAAAAAAAAAOD/gRmaBMslWJulnmtVJwVe/tkzw0uSxPd91PGSScqkZlHUTRLcQQgnE2H3d23LWUU+Woaus8yxqvSoUt1dJj7KnSBdKFFnxNvI02Fi3GX7WVaOfJSysxpiR2mEI3F3eHXP71ZZrXUwysojxIJ9EikpJ8tOz7Z2aRVFMxoEWqfDtJMA0DhZdnpq2l2MVep4Da21q7yrne4EkhSO5kHhlWw0X262nM2llmvL6taD5ZDa5ExXo7UeK80n06VFfsa+Y420Ffs77C9va5dWPnNzFfP2eTw5oaxvo48mPXVqrlCsqlPJnah91ZhUxo+82XSB4mRJjs3prGvMrFk/RkavFDTCk1EeK93zmWrRr/iT6axvzKoKVtc+Qv6ieCUxH0i2bWloyrfF28sF8pPZPHMWUbTozZ3gHKlz9tm0X/SgMEEKCQw97UW4m2jpqBcpU/r56F3hx0D1k17xCysxSEzbAUJeGSl17QHyacJrCHd7vQQrScr7ZpY9i5LCa3ov6hW26LOI+TXtUzdJIfaTwmaz69MvmonvFed1g3pbmkUz+r1Fn7XrVCmvzY72bK3dz9P5aOUhJeGd7yuFadQMVodTBRdBq/eMcvTQqOM3IrUO7cth32BvFXopwjguY72LO0xxXbuD/HOmneW7O4l8Pzulsm8zUahJ0lJNaAwGBtWeFWlJyeKIFikSEPR9akQhPW1Qv49Ueu3mCip1apHB/FnXnnainH5c1Xn93EerUyr7NhvtXaolY9odBZXaXT+iQVxpD1Sq3eorNDAWX+n3pigqdaZKh80sde3TSC2K5ka7FCi4y/cxpV3tTqndQGXMm110SLu0UjF5dd6xAWWK1DLmA4XlSF27nfhdGlcb7ZmPveJf2txu5B7R7kYsRIupxKB+3NWur3zjfJKUc2mqqEF1FLMCXtOeIpVdyyrfi+oXLWzJdjOLV7M7EPPUGb3IYwEZxrgs6KV2ozI+nzhOZbYbs/ZNMl89L09h7FUfZ9goczuPqkIyVwySBaETOC4nz0/KOp8aa7/T11QtHa/1WVT3yjpPtNPy7E7i5dbfIYMBe5vE5aWxyBhbHjqempeXYVLOd8W5IpecMF2aXDq9HSZRr7jsVt7BATFP15QoLdxg56oytXR9FOf0beaT/l58IY+iuUlOzb9ifJ5PpyOHes30yOLUtM28X2ZBqEUY46njZOmiX6WGG3R97I8cxyGfzm2q3clcHiVPn3he4nU1KUi8pOvlZIzzuonXKzLe1rw+Snql1atO5CN/Rap+x/dVLyt+iyNFVZERz6jbrBX+ipNkVvZsx/c97PtGbPjeqhrhMoywR34fI9zTWG200jDgM+O4rmmaoSXZxeaaqZM4sEzTCssthyBYOmUqBk5BJunLjLwWESJZaLHKFwnCRlkVw2C5DKvUNV3XzehvrE1E6255NjQ3Sx4uXv/fCNj+i+54fsLbllcm+FrtPARxj6slr083LluVFL6bc7Xk9TlXqmFcw1wN4YATq5pOxjI99cTdbj1Givt4li96ucB3WI5ipdOpNmqe0wEAAAAAAAAAAAAAAAAAAAAAAAAAAAAAAADgN8t/AFkzxOsJTVNaAAAAAElFTkSuQmCC;" parent="1" vertex="1">
          <mxGeometry x="480" y="305" width="49.95" height="40" as="geometry" />
        </mxCell>
        <mxCell id="y1X1aUOBeFnpXUIdjmpI-55" value="" style="edgeStyle=orthogonalEdgeStyle;rounded=1;jumpSize=7;orthogonalLoop=1;jettySize=auto;html=1;labelBackgroundColor=none;strokeColor=default;strokeWidth=1;fontSize=9;fontColor=none;opacity=50;" parent="1" source="y1X1aUOBeFnpXUIdjmpI-49" target="y1X1aUOBeFnpXUIdjmpI-54" edge="1">
          <mxGeometry relative="1" as="geometry" />
        </mxCell>
        <mxCell id="y1X1aUOBeFnpXUIdjmpI-49" value="Face similarity&amp;nbsp;" style="whiteSpace=wrap;html=1;fontSize=9;verticalAlign=top;fontColor=#333333;labelBackgroundColor=#ffffff;fillColor=#f5f5f5;strokeColor=#666666;" parent="1" vertex="1">
          <mxGeometry x="472.1" y="401.82" width="65.75" height="26.37" as="geometry" />
        </mxCell>
        <mxCell id="y1X1aUOBeFnpXUIdjmpI-54" value="Entry" style="rounded=1;whiteSpace=wrap;html=1;fontSize=9;verticalAlign=top;fillColor=#f5f5f5;strokeColor=#666666;fontColor=#333333;labelBackgroundColor=#ffffff;" parent="1" vertex="1">
          <mxGeometry x="570" y="402.51" width="69.27" height="25" as="geometry" />
        </mxCell>
        <mxCell id="y1X1aUOBeFnpXUIdjmpI-56" value="" style="shape=image;verticalLabelPosition=bottom;labelBackgroundColor=default;verticalAlign=top;aspect=fixed;imageAspect=0;image=data:image/png,iVBORw0KGgoAAAANSUhEUgAAAOEAAADhCAMAAAAJbSJIAAAAbFBMVEUAlIX///8Ajn4AkYIAlofm9fNSsKUAi3q63tkAkIHv+Pf5/f0Aj372/Pt6vrXB4d2ez8mUy8Ryu7KKxb7h8vA8pprN6OWp1tFIrKCMxr8knZDY7euy2dXR6eYdnY9htKqk1M5ptq0oo5aW0cusWFKYAAAITklEQVR4nO2da7uyKhCGA0yl89myslX7///HrR3VpJ3zDGr74vn0fnivFbcDA8wM0Os5OTk5OTk5OTk5OTk5OTk5OTk5OTk5OTkVpJSWL2mlVNstYlNGFsjEX+xmf9HhEIaH6G82n/jrXhBI+eOgKVwv3u7C40BUaj+dnS9eitl2Q2nS0vMn01U1W06D4+wU/x6lDpLJ1GC5Co338+0vQWqZ7P7bdm+U0Y9AKpks97XxbhpEa63bBvgP6ZEfjol8Vx0nnmwb4oPkaFG/d74ZctZZRt3bfe9bPuoQd3FAam/JxHdlXI/aBipJyQkjX6ph1K2+Gmzx8VfWeNmdriqTKTtfpr7fDTMqvRxaAUx1SDowPcr4aIsv1eActA44sciX6dBrdTQqSyMwr1ZHo9zSp4h+/+v/umwNMUB66LnG/BK2FAlQBwBwJb+3Yfq/4xZ8qupBPvTUq0MoxtvGe6pKoFXMXnq1CMXw3DCivmDL0JOuSSjEpFFEvcaWMUfZq03YqEuVW3CddlIEQrFrDFGjgPu0qQRCMW8IEe2iQmwVjbChjqpiFHCTraZJhI24G+XBm/nMhERC0cCkoajB0Kc210YSCYdr2ws4iW8mriakEopxYhcxmMGA01s/oxKmK1qbgPIEA4p7NyMTioNFRNyNpia8hyXohFYdKkPMMFYwobDmbeQfDhg+vj9CuLJEqHwc8PX5EUIR2YnA4VN96iWe6QiIMN19WQAcIUGLhy7P/oUR9j1+QJY+mnP0GKH44/enCmvRTbkvDxLy+1M5ZwCMch8eJVxxOxuPAXAY5/8g2icWvM4mCBkIC2MHJhywAqotA2DBhDihmHE6G7lhIJwVUvM44Tg2Nbe+WGaKYXEKwwk5jchjwmJ7GAiHbNM+zygszV8MhHxGDDjSoOVYJwdh+auRFeNtEYNyj+IgFEueOVFGDG15i8izEPZ5jOhBxYY3vZmQh1CcORA1R7XFezieh3DKUf6mGeplBu/jhYdwyDDrqzVDQya2CMUc9zUSjwFXOgQmQob4sGSIIFaYkIvwGZ0kS13wRvSr/jAXIZw15eiklXtVLsI+utcP8E7ar3QGXIQC9aYJ3oTqcAMbYdUgryGG6d7QjdgIp9hAZEiIGhZWbITvC8J6gtuxN3hzNkLhI/OFggtLxNkwTPgIoYGoFujP702jhI8QGogSzsacTF2Ij3AFAOL7CqMJGQmxGRFthtkLMBJuAVeDRmg2H4ZI8EH1ogpAtEahxSU0R143zxXSXY3eYYCfTPhBdQNDxJ/JhLrSZkwoBvTtBbhmI37bpHZsj25DcOtES0QTss0JnRCKlE5pnYcQnqVPFwECmKssqSNKwQA9Lgwl74k+XBHW+vQJEdrgNzYKgaApFAwmmpCUJCHnEaHMaHOjECiQQtL3xEJeWnVgRCYElqW0KUrSlol0wjMZkPqbtAmYXPlNt+GQaEJi8RydkDwOI2LikriGovdSqi8l5i2JoxDxpdT5kPiL5DJr+nxIzKwRa5XIJgQqh4jrUuIP0ivld+R1qST9XuMmFIuGd0/ErKymb0aB/SElpknMBQEmJK6Br79KqbqkJtaB8yr0iDAl1taCCcdArI1QpkA8NI8cOdrTCQlL7zHNceslHRApbiMsaiaBNMs8XhRyagwpFa4fUwg/aGoM3UjEhOYc5RfCj6YXZIzyA3OhwPKHDKUYeZkIMRNCxRgs1bMvGW0Ind08Inl8lnMILxkIkblQoLV7HCdjXzIQgj+COJr087JeGVhNCM2F8PEnNAtclIEQM6G53OMrsVR5P1VJCJoQLqGVnAOxkhBazgis1uRKyHFG/aEqQmwuTIchWgXNcvTwoSpC1FvjN51gC6qiKgjRUQh3Ut5uWmVDsPir4jROXXF203dCeFnIch0PX4ndO+EIddUcVyuw3KZw0xshbEJTjXUtcZyaueuNEJ0LmQ6RBhwnua8qE6JzoRjznObm8zVlQriKlpw4LInhZNBNJUJ8f00vaCtKwxX7d5UJURMSK+cqxHL7jigT4ibku4WHK1xTJIS3LeCJp6J4jFggxD8bviTNtYZnJBYI4a7PclL9KckSGs4T4iakZw2rxBNWLNgQNSH3fWYs95vkCGETst1r8lTC8NRKjrDWwwFVAg/HVgheQxYIYRNuLFycyJCHehHCJrRxhSlD6PRJCJvQzu3sYAIlT4g6UjDObdQITWI8CFETDuHLMAyCL0p+ECpwO2bvqmR5ZiFE14A2r7sG7wG5E4KO1NY9yXdEaCjeCEETDi1fOw+lGW6EI8yEVi5JzkldgDzGlRB0pPZfuNBA5O1mQ8iRsl5aapCkD6OMEBuFwLHtOojkbpYRQjdrAae26yFStxkpIWTCTWMPzFGTNSkh4kiPFi5iNyLSrOgrxITNWfCKSBqLvgJWpLyhtS8QKcbwAT8cNf4CIuXtNZ/uSJt7c+0lHddewG3PVMBFK0+Rql7dCOOaaMLBuq23Vkc1Z41/aIAbr70ngUcnxnoik2atvlytPdtPHg+af2O1pMDeu+OZwnYfrb5KxvbM2D+1bcCrlFxYMuOf14HH46/SiuPa9rKOrc0RVZJr7q7aP384JtWG1MhnK51KNZj0utJBX1LS5zolNVh2kC+TCrYcfXU1kd3ky6TkOsKqZIbTU4f5MinpnegDcjWPO+ZfKpVCLikjchCtZZfmh4/SwWU5rdNdh/uZ/+kUbQeldNpdZ8evKPeHRfxjeHcpKb315LD5sMNahTs/UT9J91BqSxn0Lud5FG5W44f6xzCaLbfJKJD6l+leUhmoDG48KvvHSP5f2JycnJycnJycnJycnJycnJycnJycnJycuPQvAnyJNeL0SNwAAAAASUVORK5CYII=;" parent="1" vertex="1">
          <mxGeometry x="567.5" y="310" width="30" height="30" as="geometry" />
        </mxCell>
        <mxCell id="y1X1aUOBeFnpXUIdjmpI-57" value="/Login" style="text;strokeColor=none;fillColor=none;html=1;fontSize=9;fontStyle=1;verticalAlign=middle;align=center;textOpacity=70;" parent="1" vertex="1">
          <mxGeometry x="560" y="350" width="45" height="10" as="geometry" />
        </mxCell>
        <mxCell id="y1X1aUOBeFnpXUIdjmpI-61" value="/registerembedding" style="text;strokeColor=none;fillColor=none;html=1;fontSize=9;fontStyle=1;verticalAlign=middle;align=center;textOpacity=70;" parent="1" vertex="1">
          <mxGeometry x="222.5" y="290" width="45" height="10" as="geometry" />
        </mxCell>
        <mxCell id="d_2k8jjo586_hEbx9NkU-11" value="Device" style="text;strokeColor=none;fillColor=none;html=1;fontSize=9;fontStyle=1;verticalAlign=middle;align=center;textOpacity=70;" parent="1" vertex="1">
          <mxGeometry x="78" y="706.5" width="45" height="10" as="geometry" />
        </mxCell>
        <mxCell id="d_2k8jjo586_hEbx9NkU-14" value="" style="edgeStyle=orthogonalEdgeStyle;rounded=1;jumpSize=7;orthogonalLoop=1;jettySize=auto;html=1;labelBackgroundColor=none;strokeColor=default;strokeWidth=1;fontSize=9;fontColor=none;" parent="1" source="d_2k8jjo586_hEbx9NkU-15" target="d_2k8jjo586_hEbx9NkU-21" edge="1">
          <mxGeometry relative="1" as="geometry" />
        </mxCell>
        <mxCell id="d_2k8jjo586_hEbx9NkU-15" value="" style="shape=image;verticalLabelPosition=bottom;labelBackgroundColor=default;verticalAlign=top;aspect=fixed;imageAspect=0;image=data:image/png,iVBORw0KGgoAAAANSUhEUgAAAOEAAADhCAMAAAAJbSJIAAAAbFBMVEUAlIX///8Ajn4AkYIAlofm9fNSsKUAi3q63tkAkIHv+Pf5/f0Aj372/Pt6vrXB4d2ez8mUy8Ryu7KKxb7h8vA8pprN6OWp1tFIrKCMxr8knZDY7euy2dXR6eYdnY9htKqk1M5ptq0oo5aW0cusWFKYAAAITklEQVR4nO2da7uyKhCGA0yl89myslX7///HrR3VpJ3zDGr74vn0fnivFbcDA8wM0Os5OTk5OTk5OTk5OTk5OTk5OTk5OTk5OTkVpJSWL2mlVNstYlNGFsjEX+xmf9HhEIaH6G82n/jrXhBI+eOgKVwv3u7C40BUaj+dnS9eitl2Q2nS0vMn01U1W06D4+wU/x6lDpLJ1GC5Co338+0vQWqZ7P7bdm+U0Y9AKpks97XxbhpEa63bBvgP6ZEfjol8Vx0nnmwb4oPkaFG/d74ZctZZRt3bfe9bPuoQd3FAam/JxHdlXI/aBipJyQkjX6ph1K2+Gmzx8VfWeNmdriqTKTtfpr7fDTMqvRxaAUx1SDowPcr4aIsv1eActA44sciX6dBrdTQqSyMwr1ZHo9zSp4h+/+v/umwNMUB66LnG/BK2FAlQBwBwJb+3Yfq/4xZ8qupBPvTUq0MoxtvGe6pKoFXMXnq1CMXw3DCivmDL0JOuSSjEpFFEvcaWMUfZq03YqEuVW3CddlIEQrFrDFGjgPu0qQRCMW8IEe2iQmwVjbChjqpiFHCTraZJhI24G+XBm/nMhERC0cCkoajB0Kc210YSCYdr2ws4iW8mriakEopxYhcxmMGA01s/oxKmK1qbgPIEA4p7NyMTioNFRNyNpia8hyXohFYdKkPMMFYwobDmbeQfDhg+vj9CuLJEqHwc8PX5EUIR2YnA4VN96iWe6QiIMN19WQAcIUGLhy7P/oUR9j1+QJY+mnP0GKH44/enCmvRTbkvDxLy+1M5ZwCMch8eJVxxOxuPAXAY5/8g2icWvM4mCBkIC2MHJhywAqotA2DBhDihmHE6G7lhIJwVUvM44Tg2Nbe+WGaKYXEKwwk5jchjwmJ7GAiHbNM+zygszV8MhHxGDDjSoOVYJwdh+auRFeNtEYNyj+IgFEueOVFGDG15i8izEPZ5jOhBxYY3vZmQh1CcORA1R7XFezieh3DKUf6mGeplBu/jhYdwyDDrqzVDQya2CMUc9zUSjwFXOgQmQob4sGSIIFaYkIvwGZ0kS13wRvSr/jAXIZw15eiklXtVLsI+utcP8E7ar3QGXIQC9aYJ3oTqcAMbYdUgryGG6d7QjdgIp9hAZEiIGhZWbITvC8J6gtuxN3hzNkLhI/OFggtLxNkwTPgIoYGoFujP702jhI8QGogSzsacTF2Ij3AFAOL7CqMJGQmxGRFthtkLMBJuAVeDRmg2H4ZI8EH1ogpAtEahxSU0R143zxXSXY3eYYCfTPhBdQNDxJ/JhLrSZkwoBvTtBbhmI37bpHZsj25DcOtES0QTss0JnRCKlE5pnYcQnqVPFwECmKssqSNKwQA9Lgwl74k+XBHW+vQJEdrgNzYKgaApFAwmmpCUJCHnEaHMaHOjECiQQtL3xEJeWnVgRCYElqW0KUrSlol0wjMZkPqbtAmYXPlNt+GQaEJi8RydkDwOI2LikriGovdSqi8l5i2JoxDxpdT5kPiL5DJr+nxIzKwRa5XIJgQqh4jrUuIP0ivld+R1qST9XuMmFIuGd0/ErKymb0aB/SElpknMBQEmJK6Br79KqbqkJtaB8yr0iDAl1taCCcdArI1QpkA8NI8cOdrTCQlL7zHNceslHRApbiMsaiaBNMs8XhRyagwpFa4fUwg/aGoM3UjEhOYc5RfCj6YXZIzyA3OhwPKHDKUYeZkIMRNCxRgs1bMvGW0Ind08Inl8lnMILxkIkblQoLV7HCdjXzIQgj+COJr087JeGVhNCM2F8PEnNAtclIEQM6G53OMrsVR5P1VJCJoQLqGVnAOxkhBazgis1uRKyHFG/aEqQmwuTIchWgXNcvTwoSpC1FvjN51gC6qiKgjRUQh3Ut5uWmVDsPir4jROXXF203dCeFnIch0PX4ndO+EIddUcVyuw3KZw0xshbEJTjXUtcZyaueuNEJ0LmQ6RBhwnua8qE6JzoRjznObm8zVlQriKlpw4LInhZNBNJUJ8f00vaCtKwxX7d5UJURMSK+cqxHL7jigT4ibku4WHK1xTJIS3LeCJp6J4jFggxD8bviTNtYZnJBYI4a7PclL9KckSGs4T4iakZw2rxBNWLNgQNSH3fWYs95vkCGETst1r8lTC8NRKjrDWwwFVAg/HVgheQxYIYRNuLFycyJCHehHCJrRxhSlD6PRJCJvQzu3sYAIlT4g6UjDObdQITWI8CFETDuHLMAyCL0p+ECpwO2bvqmR5ZiFE14A2r7sG7wG5E4KO1NY9yXdEaCjeCEETDi1fOw+lGW6EI8yEVi5JzkldgDzGlRB0pPZfuNBA5O1mQ8iRsl5aapCkD6OMEBuFwLHtOojkbpYRQjdrAae26yFStxkpIWTCTWMPzFGTNSkh4kiPFi5iNyLSrOgrxITNWfCKSBqLvgJWpLyhtS8QKcbwAT8cNf4CIuXtNZ/uSJt7c+0lHddewG3PVMBFK0+Rql7dCOOaaMLBuq23Vkc1Z41/aIAbr70ngUcnxnoik2atvlytPdtPHg+af2O1pMDeu+OZwnYfrb5KxvbM2D+1bcCrlFxYMuOf14HH46/SiuPa9rKOrc0RVZJr7q7aP384JtWG1MhnK51KNZj0utJBX1LS5zolNVh2kC+TCrYcfXU1kd3ky6TkOsKqZIbTU4f5MinpnegDcjWPO+ZfKpVCLikjchCtZZfmh4/SwWU5rdNdh/uZ/+kUbQeldNpdZ8evKPeHRfxjeHcpKb315LD5sMNahTs/UT9J91BqSxn0Lud5FG5W44f6xzCaLbfJKJD6l+leUhmoDG48KvvHSP5f2JycnJycnJycnJycnJycnJycnJycnJycuPQvAnyJNeL0SNwAAAAASUVORK5CYII=;" parent="1" vertex="1">
          <mxGeometry x="295" y="580.75" width="30" height="30" as="geometry" />
        </mxCell>
        <mxCell id="d_2k8jjo586_hEbx9NkU-16" value="" style="edgeStyle=orthogonalEdgeStyle;rounded=1;jumpSize=7;orthogonalLoop=1;jettySize=auto;html=1;labelBackgroundColor=none;strokeColor=default;strokeWidth=1;fontSize=9;fontColor=none;opacity=90;" parent="1" source="d_2k8jjo586_hEbx9NkU-17" target="d_2k8jjo586_hEbx9NkU-23" edge="1">
          <mxGeometry relative="1" as="geometry" />
        </mxCell>
        <mxCell id="d_2k8jjo586_hEbx9NkU-17" value="" style="shape=image;verticalLabelPosition=bottom;labelBackgroundColor=default;verticalAlign=top;aspect=fixed;imageAspect=0;image=data:image/png,iVBORw0KGgoAAAANSUhEUgAAAOEAAADhCAMAAAAJbSJIAAAAbFBMVEUAlIX///8Ajn4AkYIAlofm9fNSsKUAi3q63tkAkIHv+Pf5/f0Aj372/Pt6vrXB4d2ez8mUy8Ryu7KKxb7h8vA8pprN6OWp1tFIrKCMxr8knZDY7euy2dXR6eYdnY9htKqk1M5ptq0oo5aW0cusWFKYAAAITklEQVR4nO2da7uyKhCGA0yl89myslX7///HrR3VpJ3zDGr74vn0fnivFbcDA8wM0Os5OTk5OTk5OTk5OTk5OTk5OTk5OTk5OTkVpJSWL2mlVNstYlNGFsjEX+xmf9HhEIaH6G82n/jrXhBI+eOgKVwv3u7C40BUaj+dnS9eitl2Q2nS0vMn01U1W06D4+wU/x6lDpLJ1GC5Co338+0vQWqZ7P7bdm+U0Y9AKpks97XxbhpEa63bBvgP6ZEfjol8Vx0nnmwb4oPkaFG/d74ZctZZRt3bfe9bPuoQd3FAam/JxHdlXI/aBipJyQkjX6ph1K2+Gmzx8VfWeNmdriqTKTtfpr7fDTMqvRxaAUx1SDowPcr4aIsv1eActA44sciX6dBrdTQqSyMwr1ZHo9zSp4h+/+v/umwNMUB66LnG/BK2FAlQBwBwJb+3Yfq/4xZ8qupBPvTUq0MoxtvGe6pKoFXMXnq1CMXw3DCivmDL0JOuSSjEpFFEvcaWMUfZq03YqEuVW3CddlIEQrFrDFGjgPu0qQRCMW8IEe2iQmwVjbChjqpiFHCTraZJhI24G+XBm/nMhERC0cCkoajB0Kc210YSCYdr2ws4iW8mriakEopxYhcxmMGA01s/oxKmK1qbgPIEA4p7NyMTioNFRNyNpia8hyXohFYdKkPMMFYwobDmbeQfDhg+vj9CuLJEqHwc8PX5EUIR2YnA4VN96iWe6QiIMN19WQAcIUGLhy7P/oUR9j1+QJY+mnP0GKH44/enCmvRTbkvDxLy+1M5ZwCMch8eJVxxOxuPAXAY5/8g2icWvM4mCBkIC2MHJhywAqotA2DBhDihmHE6G7lhIJwVUvM44Tg2Nbe+WGaKYXEKwwk5jchjwmJ7GAiHbNM+zygszV8MhHxGDDjSoOVYJwdh+auRFeNtEYNyj+IgFEueOVFGDG15i8izEPZ5jOhBxYY3vZmQh1CcORA1R7XFezieh3DKUf6mGeplBu/jhYdwyDDrqzVDQya2CMUc9zUSjwFXOgQmQob4sGSIIFaYkIvwGZ0kS13wRvSr/jAXIZw15eiklXtVLsI+utcP8E7ar3QGXIQC9aYJ3oTqcAMbYdUgryGG6d7QjdgIp9hAZEiIGhZWbITvC8J6gtuxN3hzNkLhI/OFggtLxNkwTPgIoYGoFujP702jhI8QGogSzsacTF2Ij3AFAOL7CqMJGQmxGRFthtkLMBJuAVeDRmg2H4ZI8EH1ogpAtEahxSU0R143zxXSXY3eYYCfTPhBdQNDxJ/JhLrSZkwoBvTtBbhmI37bpHZsj25DcOtES0QTss0JnRCKlE5pnYcQnqVPFwECmKssqSNKwQA9Lgwl74k+XBHW+vQJEdrgNzYKgaApFAwmmpCUJCHnEaHMaHOjECiQQtL3xEJeWnVgRCYElqW0KUrSlol0wjMZkPqbtAmYXPlNt+GQaEJi8RydkDwOI2LikriGovdSqi8l5i2JoxDxpdT5kPiL5DJr+nxIzKwRa5XIJgQqh4jrUuIP0ivld+R1qST9XuMmFIuGd0/ErKymb0aB/SElpknMBQEmJK6Br79KqbqkJtaB8yr0iDAl1taCCcdArI1QpkA8NI8cOdrTCQlL7zHNceslHRApbiMsaiaBNMs8XhRyagwpFa4fUwg/aGoM3UjEhOYc5RfCj6YXZIzyA3OhwPKHDKUYeZkIMRNCxRgs1bMvGW0Ind08Inl8lnMILxkIkblQoLV7HCdjXzIQgj+COJr087JeGVhNCM2F8PEnNAtclIEQM6G53OMrsVR5P1VJCJoQLqGVnAOxkhBazgis1uRKyHFG/aEqQmwuTIchWgXNcvTwoSpC1FvjN51gC6qiKgjRUQh3Ut5uWmVDsPir4jROXXF203dCeFnIch0PX4ndO+EIddUcVyuw3KZw0xshbEJTjXUtcZyaueuNEJ0LmQ6RBhwnua8qE6JzoRjznObm8zVlQriKlpw4LInhZNBNJUJ8f00vaCtKwxX7d5UJURMSK+cqxHL7jigT4ibku4WHK1xTJIS3LeCJp6J4jFggxD8bviTNtYZnJBYI4a7PclL9KckSGs4T4iakZw2rxBNWLNgQNSH3fWYs95vkCGETst1r8lTC8NRKjrDWwwFVAg/HVgheQxYIYRNuLFycyJCHehHCJrRxhSlD6PRJCJvQzu3sYAIlT4g6UjDObdQITWI8CFETDuHLMAyCL0p+ECpwO2bvqmR5ZiFE14A2r7sG7wG5E4KO1NY9yXdEaCjeCEETDi1fOw+lGW6EI8yEVi5JzkldgDzGlRB0pPZfuNBA5O1mQ8iRsl5aapCkD6OMEBuFwLHtOojkbpYRQjdrAae26yFStxkpIWTCTWMPzFGTNSkh4kiPFi5iNyLSrOgrxITNWfCKSBqLvgJWpLyhtS8QKcbwAT8cNf4CIuXtNZ/uSJt7c+0lHddewG3PVMBFK0+Rql7dCOOaaMLBuq23Vkc1Z41/aIAbr70ngUcnxnoik2atvlytPdtPHg+af2O1pMDeu+OZwnYfrb5KxvbM2D+1bcCrlFxYMuOf14HH46/SiuPa9rKOrc0RVZJr7q7aP384JtWG1MhnK51KNZj0utJBX1LS5zolNVh2kC+TCrYcfXU1kd3ky6TkOsKqZIbTU4f5MinpnegDcjWPO+ZfKpVCLikjchCtZZfmh4/SwWU5rdNdh/uZ/+kUbQeldNpdZ8evKPeHRfxjeHcpKb315LD5sMNahTs/UT9J91BqSxn0Lud5FG5W44f6xzCaLbfJKJD6l+leUhmoDG48KvvHSP5f2JycnJycnJycnJycnJycnJycnJycnJycuPQvAnyJNeL0SNwAAAAASUVORK5CYII=;" parent="1" vertex="1">
          <mxGeometry x="295" y="670.75" width="30" height="30" as="geometry" />
        </mxCell>
        <mxCell id="d_2k8jjo586_hEbx9NkU-18" value="/loginembedding" style="text;strokeColor=none;fillColor=none;html=1;fontSize=9;fontStyle=1;verticalAlign=middle;align=center;textOpacity=70;glass=0;" parent="1" vertex="1">
          <mxGeometry x="283" y="702.57" width="45" height="10" as="geometry" />
        </mxCell>
        <mxCell id="d_2k8jjo586_hEbx9NkU-19" value="Face Detection" style="text;strokeColor=none;fillColor=none;html=1;fontSize=9;fontStyle=1;verticalAlign=middle;align=center;textOpacity=70;" parent="1" vertex="1">
          <mxGeometry x="397.5" y="620.75" width="45" height="10" as="geometry" />
        </mxCell>
        <mxCell id="d_2k8jjo586_hEbx9NkU-20" value="" style="edgeStyle=orthogonalEdgeStyle;rounded=1;jumpSize=7;orthogonalLoop=1;jettySize=auto;html=1;labelBackgroundColor=none;strokeColor=default;strokeWidth=1;fontSize=9;fontColor=none;opacity=90;" parent="1" source="d_2k8jjo586_hEbx9NkU-21" target="d_2k8jjo586_hEbx9NkU-26" edge="1">
          <mxGeometry relative="1" as="geometry" />
        </mxCell>
        <mxCell id="d_2k8jjo586_hEbx9NkU-21" value="" style="shape=image;verticalLabelPosition=bottom;labelBackgroundColor=default;verticalAlign=top;aspect=fixed;imageAspect=0;image=https://www.kindpng.com/picc/m/381-3819158_facial-recognition-facial-image-recognition-logo-hd-png.png;" parent="1" vertex="1">
          <mxGeometry x="401.62" y="575.75" width="36.77" height="40" as="geometry" />
        </mxCell>
        <mxCell id="d_2k8jjo586_hEbx9NkU-22" value="" style="edgeStyle=orthogonalEdgeStyle;rounded=1;jumpSize=7;orthogonalLoop=1;jettySize=auto;html=1;labelBackgroundColor=none;strokeColor=default;strokeWidth=1;fontSize=9;fontColor=none;opacity=90;" parent="1" source="d_2k8jjo586_hEbx9NkU-23" target="d_2k8jjo586_hEbx9NkU-28" edge="1">
          <mxGeometry relative="1" as="geometry" />
        </mxCell>
        <mxCell id="d_2k8jjo586_hEbx9NkU-23" value="" style="shape=image;verticalLabelPosition=bottom;labelBackgroundColor=default;verticalAlign=top;aspect=fixed;imageAspect=0;image=https://www.kindpng.com/picc/m/381-3819158_facial-recognition-facial-image-recognition-logo-hd-png.png;" parent="1" vertex="1">
          <mxGeometry x="401.62" y="665.75" width="36.77" height="40" as="geometry" />
        </mxCell>
        <mxCell id="d_2k8jjo586_hEbx9NkU-24" value="Face Detection" style="text;strokeColor=none;fillColor=none;html=1;fontSize=9;fontStyle=1;verticalAlign=middle;align=center;textOpacity=70;" parent="1" vertex="1">
          <mxGeometry x="397.5" y="710.75" width="45" height="10" as="geometry" />
        </mxCell>
        <mxCell id="d_2k8jjo586_hEbx9NkU-25" value="" style="edgeStyle=orthogonalEdgeStyle;rounded=1;jumpSize=7;orthogonalLoop=1;jettySize=auto;html=1;labelBackgroundColor=none;strokeColor=default;strokeWidth=1;fontSize=9;fontColor=none;" parent="1" source="d_2k8jjo586_hEbx9NkU-26" edge="1">
          <mxGeometry relative="1" as="geometry">
            <mxPoint x="581.62" y="595.75" as="targetPoint" />
          </mxGeometry>
        </mxCell>
        <mxCell id="d_2k8jjo586_hEbx9NkU-26" value="" style="shape=image;html=1;verticalAlign=top;verticalLabelPosition=bottom;labelBackgroundColor=#ffffff;imageAspect=0;aspect=fixed;image=https://cdn1.iconfinder.com/data/icons/ios-11-glyphs/30/face_ID-128.png;fontSize=9;fontColor=none;" parent="1" vertex="1">
          <mxGeometry x="493.62" y="575" width="41.5" height="41.5" as="geometry" />
        </mxCell>
        <mxCell id="d_2k8jjo586_hEbx9NkU-27" value="" style="edgeStyle=orthogonalEdgeStyle;rounded=1;jumpSize=7;orthogonalLoop=1;jettySize=auto;html=1;labelBackgroundColor=none;strokeColor=default;strokeWidth=1;fontSize=9;fontColor=none;" parent="1" source="d_2k8jjo586_hEbx9NkU-28" target="d_2k8jjo586_hEbx9NkU-35" edge="1">
          <mxGeometry relative="1" as="geometry" />
        </mxCell>
        <mxCell id="d_2k8jjo586_hEbx9NkU-28" value="" style="shape=image;html=1;verticalAlign=top;verticalLabelPosition=bottom;labelBackgroundColor=#ffffff;imageAspect=0;aspect=fixed;image=https://cdn1.iconfinder.com/data/icons/ios-11-glyphs/30/face_ID-128.png;fontSize=9;fontColor=none;" parent="1" vertex="1">
          <mxGeometry x="493.62" y="665.75" width="41.5" height="41.5" as="geometry" />
        </mxCell>
        <mxCell id="d_2k8jjo586_hEbx9NkU-29" value="Embedding extraction" style="text;strokeColor=none;fillColor=none;html=1;fontSize=9;fontStyle=1;verticalAlign=middle;align=center;textOpacity=70;" parent="1" vertex="1">
          <mxGeometry x="492.97" y="565" width="45" height="10" as="geometry" />
        </mxCell>
        <mxCell id="d_2k8jjo586_hEbx9NkU-30" value="Embedding extraction" style="text;strokeColor=none;fillColor=none;html=1;fontSize=9;fontStyle=1;verticalAlign=middle;align=center;textOpacity=70;" parent="1" vertex="1">
          <mxGeometry x="493.62" y="655.75" width="45" height="10" as="geometry" />
        </mxCell>
        <mxCell id="d_2k8jjo586_hEbx9NkU-31" value="" style="edgeStyle=orthogonalEdgeStyle;rounded=1;jumpSize=7;orthogonalLoop=1;jettySize=auto;html=1;labelBackgroundColor=none;strokeColor=default;strokeWidth=1;fontSize=9;fontColor=none;" parent="1" target="d_2k8jjo586_hEbx9NkU-35" edge="1">
          <mxGeometry relative="1" as="geometry">
            <mxPoint x="606.5950000000001" y="615.75" as="sourcePoint" />
          </mxGeometry>
        </mxCell>
        <mxCell id="d_2k8jjo586_hEbx9NkU-34" value="" style="edgeStyle=orthogonalEdgeStyle;rounded=1;jumpSize=7;orthogonalLoop=1;jettySize=auto;html=1;labelBackgroundColor=none;strokeColor=default;strokeWidth=1;fontSize=9;fontColor=none;opacity=50;" parent="1" source="d_2k8jjo586_hEbx9NkU-35" edge="1">
          <mxGeometry relative="1" as="geometry">
            <mxPoint x="669.62" y="685.75" as="targetPoint" />
          </mxGeometry>
        </mxCell>
        <mxCell id="d_2k8jjo586_hEbx9NkU-35" value="Face similarity&amp;nbsp;" style="whiteSpace=wrap;html=1;fontSize=9;verticalAlign=top;fontColor=#333333;labelBackgroundColor=#ffffff;fillColor=#f5f5f5;strokeColor=#666666;" parent="1" vertex="1">
          <mxGeometry x="573.72" y="672.5699999999999" width="65.75" height="26.37" as="geometry" />
        </mxCell>
        <mxCell id="d_2k8jjo586_hEbx9NkU-39" value="/registerembedding" style="text;strokeColor=none;fillColor=none;html=1;fontSize=9;fontStyle=1;verticalAlign=middle;align=center;textOpacity=70;" parent="1" vertex="1">
          <mxGeometry x="287.5" y="565" width="45" height="10" as="geometry" />
        </mxCell>
        <mxCell id="43ZUAuql8glNdpeJqiIa-22" style="edgeStyle=isometricEdgeStyle;curved=1;orthogonalLoop=1;jettySize=auto;html=1;entryX=0;entryY=0.75;entryDx=0;entryDy=0;elbow=vertical;" parent="1" source="d_2k8jjo586_hEbx9NkU-40" target="d_2k8jjo586_hEbx9NkU-41" edge="1">
          <mxGeometry relative="1" as="geometry" />
        </mxCell>
        <mxCell id="d_2k8jjo586_hEbx9NkU-40" value="" style="sketch=0;pointerEvents=1;shadow=0;dashed=0;html=1;strokeColor=none;labelPosition=center;verticalLabelPosition=bottom;verticalAlign=top;align=center;fillColor=#505050;shape=mxgraph.mscae.intune.device_group" parent="1" vertex="1">
          <mxGeometry x="78" y="671.82" width="30" height="30" as="geometry" />
        </mxCell>
        <mxCell id="d_2k8jjo586_hEbx9NkU-47" style="edgeStyle=orthogonalEdgeStyle;rounded=0;orthogonalLoop=1;jettySize=auto;html=1;entryX=-0.11;entryY=0.571;entryDx=0;entryDy=0;entryPerimeter=0;" parent="1" source="d_2k8jjo586_hEbx9NkU-41" target="d_2k8jjo586_hEbx9NkU-17" edge="1">
          <mxGeometry relative="1" as="geometry" />
        </mxCell>
        <mxCell id="d_2k8jjo586_hEbx9NkU-52" value="" style="edgeStyle=orthogonalEdgeStyle;rounded=0;orthogonalLoop=1;jettySize=auto;html=1;" parent="1" source="d_2k8jjo586_hEbx9NkU-41" target="d_2k8jjo586_hEbx9NkU-51" edge="1">
          <mxGeometry relative="1" as="geometry" />
        </mxCell>
        <mxCell id="d_2k8jjo586_hEbx9NkU-41" value="" style="shape=image;verticalLabelPosition=bottom;labelBackgroundColor=default;verticalAlign=top;aspect=fixed;imageAspect=0;image=data:image/png,iVBORw0KGgoAAAANSUhEUgAAAOEAAADhCAMAAAAJbSJIAAAAbFBMVEUAlIX///8Ajn4AkYIAlofm9fNSsKUAi3q63tkAkIHv+Pf5/f0Aj372/Pt6vrXB4d2ez8mUy8Ryu7KKxb7h8vA8pprN6OWp1tFIrKCMxr8knZDY7euy2dXR6eYdnY9htKqk1M5ptq0oo5aW0cusWFKYAAAITklEQVR4nO2da7uyKhCGA0yl89myslX7///HrR3VpJ3zDGr74vn0fnivFbcDA8wM0Os5OTk5OTk5OTk5OTk5OTk5OTk5OTk5OTkVpJSWL2mlVNstYlNGFsjEX+xmf9HhEIaH6G82n/jrXhBI+eOgKVwv3u7C40BUaj+dnS9eitl2Q2nS0vMn01U1W06D4+wU/x6lDpLJ1GC5Co338+0vQWqZ7P7bdm+U0Y9AKpks97XxbhpEa63bBvgP6ZEfjol8Vx0nnmwb4oPkaFG/d74ZctZZRt3bfe9bPuoQd3FAam/JxHdlXI/aBipJyQkjX6ph1K2+Gmzx8VfWeNmdriqTKTtfpr7fDTMqvRxaAUx1SDowPcr4aIsv1eActA44sciX6dBrdTQqSyMwr1ZHo9zSp4h+/+v/umwNMUB66LnG/BK2FAlQBwBwJb+3Yfq/4xZ8qupBPvTUq0MoxtvGe6pKoFXMXnq1CMXw3DCivmDL0JOuSSjEpFFEvcaWMUfZq03YqEuVW3CddlIEQrFrDFGjgPu0qQRCMW8IEe2iQmwVjbChjqpiFHCTraZJhI24G+XBm/nMhERC0cCkoajB0Kc210YSCYdr2ws4iW8mriakEopxYhcxmMGA01s/oxKmK1qbgPIEA4p7NyMTioNFRNyNpia8hyXohFYdKkPMMFYwobDmbeQfDhg+vj9CuLJEqHwc8PX5EUIR2YnA4VN96iWe6QiIMN19WQAcIUGLhy7P/oUR9j1+QJY+mnP0GKH44/enCmvRTbkvDxLy+1M5ZwCMch8eJVxxOxuPAXAY5/8g2icWvM4mCBkIC2MHJhywAqotA2DBhDihmHE6G7lhIJwVUvM44Tg2Nbe+WGaKYXEKwwk5jchjwmJ7GAiHbNM+zygszV8MhHxGDDjSoOVYJwdh+auRFeNtEYNyj+IgFEueOVFGDG15i8izEPZ5jOhBxYY3vZmQh1CcORA1R7XFezieh3DKUf6mGeplBu/jhYdwyDDrqzVDQya2CMUc9zUSjwFXOgQmQob4sGSIIFaYkIvwGZ0kS13wRvSr/jAXIZw15eiklXtVLsI+utcP8E7ar3QGXIQC9aYJ3oTqcAMbYdUgryGG6d7QjdgIp9hAZEiIGhZWbITvC8J6gtuxN3hzNkLhI/OFggtLxNkwTPgIoYGoFujP702jhI8QGogSzsacTF2Ij3AFAOL7CqMJGQmxGRFthtkLMBJuAVeDRmg2H4ZI8EH1ogpAtEahxSU0R143zxXSXY3eYYCfTPhBdQNDxJ/JhLrSZkwoBvTtBbhmI37bpHZsj25DcOtES0QTss0JnRCKlE5pnYcQnqVPFwECmKssqSNKwQA9Lgwl74k+XBHW+vQJEdrgNzYKgaApFAwmmpCUJCHnEaHMaHOjECiQQtL3xEJeWnVgRCYElqW0KUrSlol0wjMZkPqbtAmYXPlNt+GQaEJi8RydkDwOI2LikriGovdSqi8l5i2JoxDxpdT5kPiL5DJr+nxIzKwRa5XIJgQqh4jrUuIP0ivld+R1qST9XuMmFIuGd0/ErKymb0aB/SElpknMBQEmJK6Br79KqbqkJtaB8yr0iDAl1taCCcdArI1QpkA8NI8cOdrTCQlL7zHNceslHRApbiMsaiaBNMs8XhRyagwpFa4fUwg/aGoM3UjEhOYc5RfCj6YXZIzyA3OhwPKHDKUYeZkIMRNCxRgs1bMvGW0Ind08Inl8lnMILxkIkblQoLV7HCdjXzIQgj+COJr087JeGVhNCM2F8PEnNAtclIEQM6G53OMrsVR5P1VJCJoQLqGVnAOxkhBazgis1uRKyHFG/aEqQmwuTIchWgXNcvTwoSpC1FvjN51gC6qiKgjRUQh3Ut5uWmVDsPir4jROXXF203dCeFnIch0PX4ndO+EIddUcVyuw3KZw0xshbEJTjXUtcZyaueuNEJ0LmQ6RBhwnua8qE6JzoRjznObm8zVlQriKlpw4LInhZNBNJUJ8f00vaCtKwxX7d5UJURMSK+cqxHL7jigT4ibku4WHK1xTJIS3LeCJp6J4jFggxD8bviTNtYZnJBYI4a7PclL9KckSGs4T4iakZw2rxBNWLNgQNSH3fWYs95vkCGETst1r8lTC8NRKjrDWwwFVAg/HVgheQxYIYRNuLFycyJCHehHCJrRxhSlD6PRJCJvQzu3sYAIlT4g6UjDObdQITWI8CFETDuHLMAyCL0p+ECpwO2bvqmR5ZiFE14A2r7sG7wG5E4KO1NY9yXdEaCjeCEETDi1fOw+lGW6EI8yEVi5JzkldgDzGlRB0pPZfuNBA5O1mQ8iRsl5aapCkD6OMEBuFwLHtOojkbpYRQjdrAae26yFStxkpIWTCTWMPzFGTNSkh4kiPFi5iNyLSrOgrxITNWfCKSBqLvgJWpLyhtS8QKcbwAT8cNf4CIuXtNZ/uSJt7c+0lHddewG3PVMBFK0+Rql7dCOOaaMLBuq23Vkc1Z41/aIAbr70ngUcnxnoik2atvlytPdtPHg+af2O1pMDeu+OZwnYfrb5KxvbM2D+1bcCrlFxYMuOf14HH46/SiuPa9rKOrc0RVZJr7q7aP384JtWG1MhnK51KNZj0utJBX1LS5zolNVh2kC+TCrYcfXU1kd3ky6TkOsKqZIbTU4f5MinpnegDcjWPO+ZfKpVCLikjchCtZZfmh4/SwWU5rdNdh/uZ/+kUbQeldNpdZ8evKPeHRfxjeHcpKb315LD5sMNahTs/UT9J91BqSxn0Lud5FG5W44f6xzCaLbfJKJD6l+leUhmoDG48KvvHSP5f2JycnJycnJycnJycnJycnJycnJycnJycuPQvAnyJNeL0SNwAAAAASUVORK5CYII=;" parent="1" vertex="1">
          <mxGeometry x="169.5" y="672.57" width="30" height="30" as="geometry" />
        </mxCell>
        <mxCell id="d_2k8jjo586_hEbx9NkU-43" value="/login" style="text;strokeColor=none;fillColor=none;html=1;fontSize=9;fontStyle=1;verticalAlign=middle;align=center;textOpacity=70;" parent="1" vertex="1">
          <mxGeometry x="162" y="705.75" width="45" height="10" as="geometry" />
        </mxCell>
        <mxCell id="d_2k8jjo586_hEbx9NkU-55" style="edgeStyle=orthogonalEdgeStyle;rounded=0;orthogonalLoop=1;jettySize=auto;html=1;entryX=0;entryY=0.5;entryDx=0;entryDy=0;" parent="1" source="d_2k8jjo586_hEbx9NkU-51" target="d_2k8jjo586_hEbx9NkU-15" edge="1">
          <mxGeometry relative="1" as="geometry" />
        </mxCell>
        <mxCell id="d_2k8jjo586_hEbx9NkU-64" style="edgeStyle=orthogonalEdgeStyle;rounded=0;orthogonalLoop=1;jettySize=auto;html=1;entryX=0.5;entryY=0;entryDx=0;entryDy=0;" parent="1" source="d_2k8jjo586_hEbx9NkU-51" edge="1">
          <mxGeometry relative="1" as="geometry">
            <mxPoint x="248.97500000000002" y="625.75" as="targetPoint" />
          </mxGeometry>
        </mxCell>
        <mxCell id="d_2k8jjo586_hEbx9NkU-51" value="" style="shape=image;verticalLabelPosition=bottom;labelBackgroundColor=default;verticalAlign=top;aspect=fixed;imageAspect=0;image=data:image/png,iVBORw0KGgoAAAANSUhEUgAAAOEAAADhCAMAAAAJbSJIAAAAbFBMVEUAlIX///8Ajn4AkYIAlofm9fNSsKUAi3q63tkAkIHv+Pf5/f0Aj372/Pt6vrXB4d2ez8mUy8Ryu7KKxb7h8vA8pprN6OWp1tFIrKCMxr8knZDY7euy2dXR6eYdnY9htKqk1M5ptq0oo5aW0cusWFKYAAAITklEQVR4nO2da7uyKhCGA0yl89myslX7///HrR3VpJ3zDGr74vn0fnivFbcDA8wM0Os5OTk5OTk5OTk5OTk5OTk5OTk5OTk5OTkVpJSWL2mlVNstYlNGFsjEX+xmf9HhEIaH6G82n/jrXhBI+eOgKVwv3u7C40BUaj+dnS9eitl2Q2nS0vMn01U1W06D4+wU/x6lDpLJ1GC5Co338+0vQWqZ7P7bdm+U0Y9AKpks97XxbhpEa63bBvgP6ZEfjol8Vx0nnmwb4oPkaFG/d74ZctZZRt3bfe9bPuoQd3FAam/JxHdlXI/aBipJyQkjX6ph1K2+Gmzx8VfWeNmdriqTKTtfpr7fDTMqvRxaAUx1SDowPcr4aIsv1eActA44sciX6dBrdTQqSyMwr1ZHo9zSp4h+/+v/umwNMUB66LnG/BK2FAlQBwBwJb+3Yfq/4xZ8qupBPvTUq0MoxtvGe6pKoFXMXnq1CMXw3DCivmDL0JOuSSjEpFFEvcaWMUfZq03YqEuVW3CddlIEQrFrDFGjgPu0qQRCMW8IEe2iQmwVjbChjqpiFHCTraZJhI24G+XBm/nMhERC0cCkoajB0Kc210YSCYdr2ws4iW8mriakEopxYhcxmMGA01s/oxKmK1qbgPIEA4p7NyMTioNFRNyNpia8hyXohFYdKkPMMFYwobDmbeQfDhg+vj9CuLJEqHwc8PX5EUIR2YnA4VN96iWe6QiIMN19WQAcIUGLhy7P/oUR9j1+QJY+mnP0GKH44/enCmvRTbkvDxLy+1M5ZwCMch8eJVxxOxuPAXAY5/8g2icWvM4mCBkIC2MHJhywAqotA2DBhDihmHE6G7lhIJwVUvM44Tg2Nbe+WGaKYXEKwwk5jchjwmJ7GAiHbNM+zygszV8MhHxGDDjSoOVYJwdh+auRFeNtEYNyj+IgFEueOVFGDG15i8izEPZ5jOhBxYY3vZmQh1CcORA1R7XFezieh3DKUf6mGeplBu/jhYdwyDDrqzVDQya2CMUc9zUSjwFXOgQmQob4sGSIIFaYkIvwGZ0kS13wRvSr/jAXIZw15eiklXtVLsI+utcP8E7ar3QGXIQC9aYJ3oTqcAMbYdUgryGG6d7QjdgIp9hAZEiIGhZWbITvC8J6gtuxN3hzNkLhI/OFggtLxNkwTPgIoYGoFujP702jhI8QGogSzsacTF2Ij3AFAOL7CqMJGQmxGRFthtkLMBJuAVeDRmg2H4ZI8EH1ogpAtEahxSU0R143zxXSXY3eYYCfTPhBdQNDxJ/JhLrSZkwoBvTtBbhmI37bpHZsj25DcOtES0QTss0JnRCKlE5pnYcQnqVPFwECmKssqSNKwQA9Lgwl74k+XBHW+vQJEdrgNzYKgaApFAwmmpCUJCHnEaHMaHOjECiQQtL3xEJeWnVgRCYElqW0KUrSlol0wjMZkPqbtAmYXPlNt+GQaEJi8RydkDwOI2LikriGovdSqi8l5i2JoxDxpdT5kPiL5DJr+nxIzKwRa5XIJgQqh4jrUuIP0ivld+R1qST9XuMmFIuGd0/ErKymb0aB/SElpknMBQEmJK6Br79KqbqkJtaB8yr0iDAl1taCCcdArI1QpkA8NI8cOdrTCQlL7zHNceslHRApbiMsaiaBNMs8XhRyagwpFa4fUwg/aGoM3UjEhOYc5RfCj6YXZIzyA3OhwPKHDKUYeZkIMRNCxRgs1bMvGW0Ind08Inl8lnMILxkIkblQoLV7HCdjXzIQgj+COJr087JeGVhNCM2F8PEnNAtclIEQM6G53OMrsVR5P1VJCJoQLqGVnAOxkhBazgis1uRKyHFG/aEqQmwuTIchWgXNcvTwoSpC1FvjN51gC6qiKgjRUQh3Ut5uWmVDsPir4jROXXF203dCeFnIch0PX4ndO+EIddUcVyuw3KZw0xshbEJTjXUtcZyaueuNEJ0LmQ6RBhwnua8qE6JzoRjznObm8zVlQriKlpw4LInhZNBNJUJ8f00vaCtKwxX7d5UJURMSK+cqxHL7jigT4ibku4WHK1xTJIS3LeCJp6J4jFggxD8bviTNtYZnJBYI4a7PclL9KckSGs4T4iakZw2rxBNWLNgQNSH3fWYs95vkCGETst1r8lTC8NRKjrDWwwFVAg/HVgheQxYIYRNuLFycyJCHehHCJrRxhSlD6PRJCJvQzu3sYAIlT4g6UjDObdQITWI8CFETDuHLMAyCL0p+ECpwO2bvqmR5ZiFE14A2r7sG7wG5E4KO1NY9yXdEaCjeCEETDi1fOw+lGW6EI8yEVi5JzkldgDzGlRB0pPZfuNBA5O1mQ8iRsl5aapCkD6OMEBuFwLHtOojkbpYRQjdrAae26yFStxkpIWTCTWMPzFGTNSkh4kiPFi5iNyLSrOgrxITNWfCKSBqLvgJWpLyhtS8QKcbwAT8cNf4CIuXtNZ/uSJt7c+0lHddewG3PVMBFK0+Rql7dCOOaaMLBuq23Vkc1Z41/aIAbr70ngUcnxnoik2atvlytPdtPHg+af2O1pMDeu+OZwnYfrb5KxvbM2D+1bcCrlFxYMuOf14HH46/SiuPa9rKOrc0RVZJr7q7aP384JtWG1MhnK51KNZj0utJBX1LS5zolNVh2kC+TCrYcfXU1kd3ky6TkOsKqZIbTU4f5MinpnegDcjWPO+ZfKpVCLikjchCtZZfmh4/SwWU5rdNdh/uZ/+kUbQeldNpdZ8evKPeHRfxjeHcpKb315LD5sMNahTs/UT9J91BqSxn0Lud5FG5W44f6xzCaLbfJKJD6l+leUhmoDG48KvvHSP5f2JycnJycnJycnJycnJycnJycnJycnJycuPQvAnyJNeL0SNwAAAAASUVORK5CYII=;" parent="1" vertex="1">
          <mxGeometry x="169.5" y="580.75" width="30" height="30" as="geometry" />
        </mxCell>
        <mxCell id="d_2k8jjo586_hEbx9NkU-56" value="/register" style="text;strokeColor=none;fillColor=none;html=1;fontSize=9;fontStyle=1;verticalAlign=middle;align=center;textOpacity=70;" parent="1" vertex="1">
          <mxGeometry x="162" y="565.75" width="45" height="10" as="geometry" />
        </mxCell>
        <mxCell id="43ZUAuql8glNdpeJqiIa-21" style="edgeStyle=isometricEdgeStyle;orthogonalLoop=1;jettySize=auto;html=1;elbow=vertical;curved=1;" parent="1" source="d_2k8jjo586_hEbx9NkU-57" edge="1">
          <mxGeometry relative="1" as="geometry">
            <mxPoint x="166.52382114955356" y="595.75" as="targetPoint" />
          </mxGeometry>
        </mxCell>
        <mxCell id="d_2k8jjo586_hEbx9NkU-57" value="" style="sketch=0;pointerEvents=1;shadow=0;dashed=0;html=1;strokeColor=none;labelPosition=center;verticalLabelPosition=bottom;verticalAlign=top;align=center;fillColor=#505050;shape=mxgraph.mscae.intune.device_group" parent="1" vertex="1">
          <mxGeometry x="68" y="580.75" width="30" height="30" as="geometry" />
        </mxCell>
        <mxCell id="d_2k8jjo586_hEbx9NkU-62" value="Device" style="text;strokeColor=none;fillColor=none;html=1;fontSize=9;fontStyle=1;verticalAlign=middle;align=center;textOpacity=70;" parent="1" vertex="1">
          <mxGeometry x="60.5" y="610.75" width="45" height="10" as="geometry" />
        </mxCell>
        <mxCell id="43ZUAuql8glNdpeJqiIa-1" style="edgeStyle=orthogonalEdgeStyle;rounded=0;orthogonalLoop=1;jettySize=auto;html=1;entryX=1;entryY=0;entryDx=0;entryDy=0;" parent="1" target="d_2k8jjo586_hEbx9NkU-41" edge="1">
          <mxGeometry relative="1" as="geometry">
            <mxPoint x="224" y="645.75" as="sourcePoint" />
          </mxGeometry>
        </mxCell>
        <mxCell id="d_2k8jjo586_hEbx9NkU-70" value="Entry" style="rounded=1;whiteSpace=wrap;html=1;fontSize=9;verticalAlign=top;fillColor=#f5f5f5;strokeColor=#666666;fontColor=#333333;labelBackgroundColor=#ffffff;" parent="1" vertex="1">
          <mxGeometry x="669.62" y="672.5699999999999" width="69.27" height="25" as="geometry" />
        </mxCell>
        <mxCell id="43ZUAuql8glNdpeJqiIa-4" value="" style="shape=image;verticalLabelPosition=bottom;labelBackgroundColor=default;verticalAlign=top;aspect=fixed;imageAspect=0;image=data:image/png,iVBORw0KGgoAAAANSUhEUgAAAOEAAADhCAMAAAAJbSJIAAAAqFBMVEUAHisA7WQA8WUAHSsA82YAACcAHCsAACYAGCoAFyoADikAGSoAECkAGysABygA9mcA6WMAFCoA1F0AkEkAMzAAg0UAyFkArFEA4WEAulUAWjkA2V4APjMAmUsAmEsAckAAUTcAJi4AKy4AYDsAzlsAkkoA3mAAslMANzAApE4AuVUASDQArlIAwVcAikcAMDAAdUAAZT0AQjMA/2oAbT4AfUIAAB8AVDgSoIrPAAAHfklEQVR4nO2dW1fyOhCG2/RcSmmhIAoqIOIHiijbw///ZzstoBzaTDi4Ouma55Ze5F1JZiYzyaBpBEEQBEEQBEEQBEEQBEEQBEEQBEEQBHEaRmyUPYS/xQjbfrUlWq3/WlbZg/hL/Hed6Q9+2cP4O2pJk+msmdTKHsif4cyYruts5pQ9kL/CaqcCucR2RbeiP9A3DCq5Fb2kx9YCWS9xyx7O5bHjmfkzh+YssMse0MVxWr8CucTXym1F517f5SEse0iXJV529xRGy7jsQV2SmjtmewrZuF4ve1iXo+69mPo+jalVmRjcsB73ZzCzNq3KxDbWW55AzkdFDGow2LcyG7qDoOzBXYLasFcwhTy2GVbgmGH780Mr87MV56H6sY112ygUyA3qrfJb0XkT6MusjeKxjdefFG3C9Vac9L2yB3kOtt8RC+QSO47Kjt+6LbYyG8xXhddpMAD1pbOorlesjw7i7VyF45GqMbh1Ba/RTOKjous0eJDSx4m+lVynttuUWaPZJDZrKoY21q2sQC7xTsHQxl3IC+QSF8qlFw3/+iiF18oV3fyPYwRyiR+KpcHro8JDYYHCpqGWU7Tu5FzhlsRHpYxNLZkcKVDXJ4lKk+hcHbdGlZtEb3nsGk2JXGXcvuE8HT+FfBKnyoSnXv8UgbreHSoyiUb4cppCU5WLKO5zdJJAvhP/qZE+Pd4X/kyiGgF4PemdKFDXm4YKO9EvqsNIwN4UOAoblvTBN0dhR4GCWyydu8hlgD8/bJ0QsP1iKlDHcE51FWvQL9P4RlRqgmncIL+icWTy4hD06Qx7VFTRllU4QR6cBvfnLVJua+5xu0TZRL5A4RVqa2prYC0G/H2sYV6m8TtoZ26hDyLUTt9vg4v0A/oAd8XUAYva+jv0AZsj3ohGCCcRQYX6JMTrEeMbOGRbgF9EiMMa/xMOaALwC/aJt4Qhc/XCgxVO8W5ECzY0ugMrRGxqZE5OX/AnEdoTlB3D8zP5Aq6BpaCt0XgSF4R6XxKZuG+sUU0AZ9nY/GsOf4T2eBG24MF3vmBrxFpY47ZwCg9+Fs7gj9AWocIp6A7NKwc+QZpYFcrkaKQUos3VGD5sRMw7GYVztAol5rC1+0pPtTmsvMK4CY2dH+CdVzg6byJtLWHEY1hh2/mU2IcBUoUSq5R9WtADDMyrVEbhW+FDNiUUwt4iugnhTAdab6GFsKuTUmheIY1puMILzSFehbmPYXfo9uM+WJ3C+zrBb19IYRtrsk2iatFNvASuMD5jPeO7S3DsvcAO4DQG2iKpYcEKYzuGFeJ9qO+AgenEsz2wttFEm03ULDCN0XM0B5pDzDlvHzo3sDFXCJWJzVespjS98QV4c9ax4NR/9IC39mQPoXfNV1whkGxjqC9DQzVg9sIVAnek2RyvoeFxG7ARUyMCmSPcdfz4Rjh43WyFWgglahCXgDWt/k/sCmQUNodYK08ZwJ0ok58awkfxJy94vWFK/CC815ZeWgvuhQob75gXKV+mQ+EylVDYGyH2FSm+0FLCCtkLZkua4j0L29HwcEW8kBtoz4Y/OKIDLssUimYZ8bliQ/gqEsB9ndBn4i3//mIPBdF399nV3GfBLEeYY9INluB5ZXfJFR60UNyawifcznCFJ3icBymM8NuZFEFc01zYmr0ozHWwGdZ0/i6CSYQUIo9nNhjF2f3mSKSQzT0F7EyK+69gmbIOX4XF9/mZOk1bixoOsE5gaEZQkAhA/tJiB7efvxPFCvW+Qj1qrLtcEau7sVZ+IZUp8PTwF3uY+1RWqLC3QH2238fPfTiyClnygx7zHn9Euo0R5vRGXufrc5Nt5gviVxa5uEl0qMPMirt5iRoWqddp3/84POgWK2yo1iZKS4uJh911zax8nfP8y0Sd5y6ibh80w1q9Dz1M1LCerUi4tov/vu/3zawpRPC2rzB6V2+NZlj7CY3Gdxp4xt97O5Qp+1cQtrd30a2RPQ/1BrsK2bUqR4pDasHuVsxVyLqxGn13ctm7PNN4Tp2eu5tS7SZKZC6KCO+3H2+bWZek2vbxkemKRWv7GE5722ZmT7bqybaNbSvd7FpLHf9W1/nuIjUp9WRr3d7ivR0ky7bEXtb0eas+VQWB3Gf8ZhfXCkcbhfysoayf2Maur90i62QNIWxtncZgs2oI5Mazfp3NIpvXM4X11SHfvK7OvwXV4mm6F9k4+y8yO8jSiXwPVkZguhczc2PehbZmh1lPPi6wIkt0hR1Os3V6G3rOqs/3tAL/v7KDbbXT6IbduWm2mEXtas1gihF+dDNtZhpsf6t6XhLiDzclmeYQ62PtM9l02lcru30MvwpVzDvJsEkjmgpcuDgN/+ffchVNPIHEmw5KihSzj2dT4FfkxsUJ1JZrhUuFU09C7HitMK5cPLPGCNcKVSukybN6F5U+nKkqq/o2P9qXPZA/w8rau6h0q+RYVg8RqhvSbGqjJuKeeueyqhxi76N7Dt536i4itM3Kzqe27JrM7FY2pOFBTTJ9eppNsb8ZOQcjCEPfr1CaNI/KBmwEQRAEQRAEQRAEQRAEQRAEQRAEQRDl8z9n83RXMeI7igAAAABJRU5ErkJggg==;" parent="1" vertex="1">
          <mxGeometry x="225.82" y="626.5" width="38.18" height="38.18" as="geometry" />
        </mxCell>
        <mxCell id="43ZUAuql8glNdpeJqiIa-5" value="" style="shape=image;verticalLabelPosition=bottom;labelBackgroundColor=default;verticalAlign=top;aspect=fixed;imageAspect=0;image=data:image/png,iVBORw0KGgoAAAANSUhEUgAAAOEAAADhCAMAAAAJbSJIAAAAqFBMVEUAHisA7WQA8WUAHSsA82YAACcAHCsAACYAGCoAFyoADikAGSoAECkAGysABygA9mcA6WMAFCoA1F0AkEkAMzAAg0UAyFkArFEA4WEAulUAWjkA2V4APjMAmUsAmEsAckAAUTcAJi4AKy4AYDsAzlsAkkoA3mAAslMANzAApE4AuVUASDQArlIAwVcAikcAMDAAdUAAZT0AQjMA/2oAbT4AfUIAAB8AVDgSoIrPAAAHfklEQVR4nO2dW1fyOhCG2/RcSmmhIAoqIOIHiijbw///ZzstoBzaTDi4Ouma55Ze5F1JZiYzyaBpBEEQBEEQBEEQBEEQBEEQBEEQBEEQBHEaRmyUPYS/xQjbfrUlWq3/WlbZg/hL/Hed6Q9+2cP4O2pJk+msmdTKHsif4cyYruts5pQ9kL/CaqcCucR2RbeiP9A3DCq5Fb2kx9YCWS9xyx7O5bHjmfkzh+YssMse0MVxWr8CucTXym1F517f5SEse0iXJV529xRGy7jsQV2SmjtmewrZuF4ve1iXo+69mPo+jalVmRjcsB73ZzCzNq3KxDbWW55AzkdFDGow2LcyG7qDoOzBXYLasFcwhTy2GVbgmGH780Mr87MV56H6sY112ygUyA3qrfJb0XkT6MusjeKxjdefFG3C9Vac9L2yB3kOtt8RC+QSO47Kjt+6LbYyG8xXhddpMAD1pbOorlesjw7i7VyF45GqMbh1Ba/RTOKjous0eJDSx4m+lVynttuUWaPZJDZrKoY21q2sQC7xTsHQxl3IC+QSF8qlFw3/+iiF18oV3fyPYwRyiR+KpcHro8JDYYHCpqGWU7Tu5FzhlsRHpYxNLZkcKVDXJ4lKk+hcHbdGlZtEb3nsGk2JXGXcvuE8HT+FfBKnyoSnXv8UgbreHSoyiUb4cppCU5WLKO5zdJJAvhP/qZE+Pd4X/kyiGgF4PemdKFDXm4YKO9EvqsNIwN4UOAoblvTBN0dhR4GCWyydu8hlgD8/bJ0QsP1iKlDHcE51FWvQL9P4RlRqgmncIL+icWTy4hD06Qx7VFTRllU4QR6cBvfnLVJua+5xu0TZRL5A4RVqa2prYC0G/H2sYV6m8TtoZ26hDyLUTt9vg4v0A/oAd8XUAYva+jv0AZsj3ohGCCcRQYX6JMTrEeMbOGRbgF9EiMMa/xMOaALwC/aJt4Qhc/XCgxVO8W5ECzY0ugMrRGxqZE5OX/AnEdoTlB3D8zP5Aq6BpaCt0XgSF4R6XxKZuG+sUU0AZ9nY/GsOf4T2eBG24MF3vmBrxFpY47ZwCg9+Fs7gj9AWocIp6A7NKwc+QZpYFcrkaKQUos3VGD5sRMw7GYVztAol5rC1+0pPtTmsvMK4CY2dH+CdVzg6byJtLWHEY1hh2/mU2IcBUoUSq5R9WtADDMyrVEbhW+FDNiUUwt4iugnhTAdab6GFsKuTUmheIY1puMILzSFehbmPYXfo9uM+WJ3C+zrBb19IYRtrsk2iatFNvASuMD5jPeO7S3DsvcAO4DQG2iKpYcEKYzuGFeJ9qO+AgenEsz2wttFEm03ULDCN0XM0B5pDzDlvHzo3sDFXCJWJzVespjS98QV4c9ax4NR/9IC39mQPoXfNV1whkGxjqC9DQzVg9sIVAnek2RyvoeFxG7ARUyMCmSPcdfz4Rjh43WyFWgglahCXgDWt/k/sCmQUNodYK08ZwJ0ok58awkfxJy94vWFK/CC815ZeWgvuhQob75gXKV+mQ+EylVDYGyH2FSm+0FLCCtkLZkua4j0L29HwcEW8kBtoz4Y/OKIDLssUimYZ8bliQ/gqEsB9ndBn4i3//mIPBdF399nV3GfBLEeYY9INluB5ZXfJFR60UNyawifcznCFJ3icBymM8NuZFEFc01zYmr0ozHWwGdZ0/i6CSYQUIo9nNhjF2f3mSKSQzT0F7EyK+69gmbIOX4XF9/mZOk1bixoOsE5gaEZQkAhA/tJiB7efvxPFCvW+Qj1qrLtcEau7sVZ+IZUp8PTwF3uY+1RWqLC3QH2238fPfTiyClnygx7zHn9Euo0R5vRGXufrc5Nt5gviVxa5uEl0qMPMirt5iRoWqddp3/84POgWK2yo1iZKS4uJh911zax8nfP8y0Sd5y6ibh80w1q9Dz1M1LCerUi4tov/vu/3zawpRPC2rzB6V2+NZlj7CY3Gdxp4xt97O5Qp+1cQtrd30a2RPQ/1BrsK2bUqR4pDasHuVsxVyLqxGn13ctm7PNN4Tp2eu5tS7SZKZC6KCO+3H2+bWZek2vbxkemKRWv7GE5722ZmT7bqybaNbSvd7FpLHf9W1/nuIjUp9WRr3d7ivR0ky7bEXtb0eas+VQWB3Gf8ZhfXCkcbhfysoayf2Maur90i62QNIWxtncZgs2oI5Mazfp3NIpvXM4X11SHfvK7OvwXV4mm6F9k4+y8yO8jSiXwPVkZguhczc2PehbZmh1lPPi6wIkt0hR1Os3V6G3rOqs/3tAL/v7KDbbXT6IbduWm2mEXtas1gihF+dDNtZhpsf6t6XhLiDzclmeYQ62PtM9l02lcru30MvwpVzDvJsEkjmgpcuDgN/+ffchVNPIHEmw5KihSzj2dT4FfkxsUJ1JZrhUuFU09C7HitMK5cPLPGCNcKVSukybN6F5U+nKkqq/o2P9qXPZA/w8rau6h0q+RYVg8RqhvSbGqjJuKeeueyqhxi76N7Dt536i4itM3Kzqe27JrM7FY2pOFBTTJ9eppNsb8ZOQcjCEPfr1CaNI/KBmwEQRAEQRAEQRAEQRAEQRAEQRAEQRDl8z9n83RXMeI7igAAAABJRU5ErkJggg==;" parent="1" vertex="1">
          <mxGeometry x="586.17" y="576.6600000000001" width="38.18" height="38.18" as="geometry" />
        </mxCell>
        <mxCell id="43ZUAuql8glNdpeJqiIa-8" value="" style="sketch=0;outlineConnect=0;fontColor=#232F3E;gradientColor=none;fillColor=#D45B07;strokeColor=none;dashed=0;verticalLabelPosition=bottom;verticalAlign=top;align=center;html=1;fontSize=12;fontStyle=0;aspect=fixed;pointerEvents=1;shape=mxgraph.aws4.container_registry_image;glass=0;" parent="1" vertex="1">
          <mxGeometry x="356" y="565.75" width="18" height="18" as="geometry" />
        </mxCell>
        <mxCell id="43ZUAuql8glNdpeJqiIa-10" value="" style="sketch=0;outlineConnect=0;fontColor=#232F3E;gradientColor=none;fillColor=#D45B07;strokeColor=none;dashed=0;verticalLabelPosition=bottom;verticalAlign=top;align=center;html=1;fontSize=12;fontStyle=0;aspect=fixed;pointerEvents=1;shape=mxgraph.aws4.container_registry_image;glass=0;" parent="1" vertex="1">
          <mxGeometry x="358" y="567.75" width="18" height="18" as="geometry" />
        </mxCell>
        <mxCell id="43ZUAuql8glNdpeJqiIa-11" value="" style="sketch=0;outlineConnect=0;fontColor=#232F3E;gradientColor=none;fillColor=#D45B07;strokeColor=none;dashed=0;verticalLabelPosition=bottom;verticalAlign=top;align=center;html=1;fontSize=12;fontStyle=0;aspect=fixed;pointerEvents=1;shape=mxgraph.aws4.container_registry_image;glass=0;" parent="1" vertex="1">
          <mxGeometry x="360.11" y="571.75" width="18" height="18" as="geometry" />
        </mxCell>
        <mxCell id="43ZUAuql8glNdpeJqiIa-12" value="" style="sketch=0;outlineConnect=0;fontColor=#232F3E;gradientColor=none;fillColor=#D45B07;strokeColor=none;dashed=0;verticalLabelPosition=bottom;verticalAlign=top;align=center;html=1;fontSize=12;fontStyle=0;aspect=fixed;pointerEvents=1;shape=mxgraph.aws4.container_registry_image;glass=0;" parent="1" vertex="1">
          <mxGeometry x="363.23" y="576.75" width="18" height="18" as="geometry" />
        </mxCell>
        <mxCell id="43ZUAuql8glNdpeJqiIa-13" value="" style="sketch=0;outlineConnect=0;fontColor=#232F3E;gradientColor=none;fillColor=#D45B07;strokeColor=none;dashed=0;verticalLabelPosition=bottom;verticalAlign=top;align=center;html=1;fontSize=12;fontStyle=0;aspect=fixed;pointerEvents=1;shape=mxgraph.aws4.container_registry_image;glass=0;" parent="1" vertex="1">
          <mxGeometry x="350.98" y="655.75" width="18" height="18" as="geometry" />
        </mxCell>
        <mxCell id="43ZUAuql8glNdpeJqiIa-14" value="" style="sketch=0;outlineConnect=0;fontColor=#232F3E;gradientColor=none;fillColor=#D45B07;strokeColor=none;dashed=0;verticalLabelPosition=bottom;verticalAlign=top;align=center;html=1;fontSize=12;fontStyle=0;aspect=fixed;pointerEvents=1;shape=mxgraph.aws4.container_registry_image;glass=0;" parent="1" vertex="1">
          <mxGeometry x="354.25" y="659.75" width="18" height="18" as="geometry" />
        </mxCell>
        <mxCell id="43ZUAuql8glNdpeJqiIa-15" value="" style="sketch=0;outlineConnect=0;fontColor=#232F3E;gradientColor=none;fillColor=#D45B07;strokeColor=none;dashed=0;verticalLabelPosition=bottom;verticalAlign=top;align=center;html=1;fontSize=12;fontStyle=0;aspect=fixed;pointerEvents=1;shape=mxgraph.aws4.container_registry_image;glass=0;" parent="1" vertex="1">
          <mxGeometry x="358.00000000000006" y="665.75" width="18" height="18" as="geometry" />
        </mxCell>
      </root>
    </mxGraphModel>
  </diagram>
</mxfile>
